<svg width="120" height="48" viewBox="0 0 120 48" fill="none" xmlns="http://www.w3.org/2000/svg">
<g clip-path="url(#clip0_13156_2214)">
<path d="M44.6131 38.9854C42.0729 38.9854 39.8832 38.4307 38.0437 37.292C37.197 36.7664 36.7883 36.0949 36.7883 35.219C36.7883 34.6642 36.9926 34.1679 37.4306 33.7591C37.8394 33.3504 38.3649 33.146 38.9489 33.146C39.3868 33.146 39.9124 33.3212 40.4671 33.6423C41.9854 34.5182 43.4452 34.927 44.8759 34.927C46.7153 34.927 47.6496 34.3723 47.6496 33.2628C47.6496 32.8248 47.4744 32.4745 47.124 32.2409C46.7737 32.0073 46.0729 31.8321 45.0802 31.7445L43.124 31.5109C39.2116 31.073 37.2554 29.2336 37.2554 26.0219C37.2554 24.2409 37.8978 22.8394 39.2116 21.7883C40.5255 20.7372 42.3357 20.2409 44.6715 20.2409C46.7737 20.2409 48.5839 20.6496 50.1313 21.438C51.1532 21.9635 51.6496 22.635 51.6496 23.4818C51.6496 24.0657 51.4452 24.562 51.0656 24.9416C50.6861 25.3212 50.1897 25.5255 49.6058 25.5255C49.2262 25.5255 48.7299 25.3796 48.1167 25.0876C47.0072 24.562 45.781 24.2993 44.4963 24.2993C42.978 24.2993 42.2481 24.7664 42.2481 25.7007C42.2481 26.1387 42.4233 26.489 42.7737 26.6934C43.124 26.927 43.7664 27.073 44.7299 27.1898L46.6861 27.4234C50.6569 27.8613 52.6423 29.6715 52.6423 32.8832C52.6423 34.7226 51.9416 36.2117 50.5109 37.3504C49.051 38.4307 47.0948 38.9854 44.6131 38.9854Z" fill="#181E2F"/>
<path d="M60.8467 38.2263C60.3503 38.7226 59.7372 38.9562 58.9781 38.9562C58.2189 38.9562 57.5766 38.7226 57.1094 38.2263C56.6131 37.7299 56.3795 37.0584 56.3795 36.2117V22.9854C56.3795 22.1387 56.6131 21.4672 57.1094 20.9708C57.6058 20.4745 58.2189 20.2409 58.9781 20.2409C59.7372 20.2409 60.3795 20.4745 60.8467 20.9708C61.343 21.4672 61.5766 22.1387 61.5766 22.9854V36.2409C61.5766 37.0876 61.343 37.7591 60.8467 38.2263Z" fill="#181E2F"/>
<path d="M72.8175 45.6715C71.6204 45.6715 70.4817 45.4671 69.343 45.0584C68.2043 44.6496 67.416 44.1825 66.9489 43.6569C66.4817 43.1606 66.2481 42.6058 66.2481 41.9635C66.2481 41.3796 66.4525 40.854 66.8905 40.4161C67.2992 39.9781 67.8248 39.7737 68.4379 39.7737C68.9926 39.7737 69.6642 40.0073 70.4817 40.4453C71.3868 40.9416 72.2627 41.1752 73.0802 41.1752C75.416 41.1752 76.5547 39.8905 76.5547 37.3212V35.8613H76.5255C75.5036 37.2044 73.9854 37.8759 71.9708 37.8759C70.4817 37.8759 69.2262 37.4963 68.1751 36.7372C67.124 35.9781 66.3941 34.8686 65.927 33.438C65.5182 32.2409 65.343 30.781 65.343 29.0584C65.343 27.365 65.5474 25.9051 65.927 24.6788C66.3941 23.2482 67.1532 22.1387 68.1751 21.3796C69.2262 20.6204 70.4817 20.2409 71.9708 20.2409C74.1021 20.2409 75.6496 20.9416 76.6423 22.3139H76.6715C77.0218 21.0584 77.8394 20.4161 79.1532 20.4161C79.9124 20.4161 80.5547 20.6496 81.0218 21.146C81.5182 21.6423 81.7518 22.3139 81.7518 23.1606V36.6204C81.7518 42.6642 78.7737 45.6715 72.8175 45.6715ZM73.6058 33.5547C74.9197 33.5547 75.7956 32.9124 76.2335 31.5985C76.4671 30.927 76.5547 30.1095 76.5547 29.1168C76.5547 28.0949 76.4379 27.2774 76.2335 26.6058C75.7956 25.292 74.9197 24.6496 73.6058 24.6496C72.2627 24.6496 71.3868 25.292 70.9489 26.6058C70.7153 27.2774 70.6277 28.1241 70.6277 29.1168C70.6277 30.1095 70.7445 30.927 70.9489 31.5985C71.3576 32.8832 72.2627 33.5547 73.6058 33.5547Z" fill="#181E2F"/>
<path d="M86.3941 31.7737C85.8102 31.1898 85.5182 30.4598 85.5182 29.6131C85.5182 28.7664 85.8102 28.0657 86.3941 27.4525C86.978 26.8686 87.708 26.5766 88.5547 26.5766C89.4014 26.5766 90.1021 26.8686 90.7153 27.4525C91.2992 28.0365 91.5912 28.7664 91.5912 29.6131C91.5912 30.4598 91.2992 31.1606 90.7153 31.7737C90.1313 32.3577 89.4014 32.6496 88.5547 32.6496C87.6788 32.6496 86.978 32.3577 86.3941 31.7737Z" fill="#181E2F"/>
<path d="M95.4452 38.3139C95.4452 38.2263 95.4744 38.1387 95.5036 38.0511L100.993 22.8102C101.168 22.3139 101.46 22.0803 101.869 22.0803C102.277 22.0803 102.569 22.3139 102.744 22.8102L108.175 38.0511C108.204 38.1387 108.234 38.2263 108.234 38.3139C108.234 38.5182 108.175 38.6642 108.058 38.781C107.942 38.8978 107.766 38.9562 107.591 38.9562C107.27 38.9562 107.036 38.781 106.89 38.4599L105.46 34.5182H98.1897L96.7591 38.4599C96.6423 38.781 96.4087 38.9562 96.0583 38.9562C95.854 38.9562 95.708 38.8978 95.5912 38.781C95.5036 38.6642 95.4452 38.5182 95.4452 38.3139ZM98.6569 33.146H104.993L101.869 24.4161H101.781L98.6569 33.146Z" fill="#33CCFF"/>
<path d="M111.971 38.2263V22.8102C111.971 22.3139 112.204 22.0803 112.642 22.0803C113.109 22.0803 113.343 22.3139 113.343 22.8102V38.2263C113.343 38.7226 113.109 38.9562 112.642 38.9562C112.175 38.9562 111.971 38.6934 111.971 38.2263Z" fill="#33CCFF"/>
<path d="M9.69339 18.8394C10.5109 18.8394 11.2116 18.5474 11.7664 17.9927C12.3211 17.438 12.6131 16.7372 12.6131 15.9197C12.6131 15.1022 12.3211 14.4015 11.7664 13.8467C11.2116 13.292 10.5109 13 9.69339 13C8.87587 13 8.17514 13.292 7.6204 13.8467C7.06565 14.4015 6.77368 15.1022 6.77368 15.9197C6.77368 16.7372 7.06565 17.438 7.6204 17.9927C8.17514 18.5474 8.87587 18.8394 9.69339 18.8394Z" fill="#181E2F"/>
<path d="M14.3649 33.7591C13.3722 33.5547 12.2627 32.854 12.2919 31.4526V22.9854C12.2919 22.1387 12.0584 21.4672 11.562 20.9708C11.0657 20.4745 10.4525 20.2409 9.69339 20.2409C8.93427 20.2409 8.29193 20.4745 7.82478 20.9708C7.32843 21.4672 7.09485 22.1387 7.09485 22.9854V28.2117V31.6861C7.18244 34.6058 8.96346 37.1168 11.4744 38.2847C12.4379 38.7226 14.0438 38.9854 15.1532 38.9854C16.2627 38.9854 17.343 38.7226 18.2773 38.2847C20.7007 37.1752 22.4525 34.781 22.6569 32.0073C21.3138 32.8832 16.5255 34.1679 14.3649 33.7591Z" fill="#181E2F"/>
<path d="M31.854 22.0803C30.7737 20.854 29.2847 20.2409 27.3576 20.2409C25.2555 20.2409 23.6788 20.9416 22.5985 22.3139H22.5693C22.2482 21.0584 21.4306 20.4161 20.0876 20.4161C19.3285 20.4161 18.6861 20.6496 18.219 21.146C17.7226 21.6423 17.489 22.3139 17.489 23.1606V31.4526C17.489 31.8613 17.3139 32.3577 17.1387 32.6788C20.1752 32.1533 21.5474 31.4526 22.6569 30.927L22.6861 28.2117V27.8905C22.6861 26.8686 22.9197 26.0803 23.3868 25.4963C23.854 24.9124 24.5547 24.6204 25.4598 24.6204C26.3649 24.6204 27.0657 24.9124 27.562 25.4963C28.0584 26.0803 28.292 26.8686 28.292 27.8905V36.2117C28.292 37.0584 28.5255 37.7299 29.0219 38.2263C29.5182 38.7226 30.1314 38.9562 30.8905 38.9562C31.6496 38.9562 32.292 38.7226 32.7591 38.2263C33.2263 37.7299 33.489 37.0584 33.489 36.2117V26.8978C33.4598 24.9124 32.9343 23.3066 31.854 22.0803Z" fill="#181E2F"/>
<path d="M18.8164 2.14545V10H17.6313V2.14545H18.8164ZM21.5969 6.50227V10H20.4502V4.10909H21.5509V5.0679H21.6238C21.7593 4.75597 21.9715 4.5054 22.2604 4.31619C22.5519 4.12699 22.9188 4.03239 23.3611 4.03239C23.7625 4.03239 24.1141 4.11676 24.4158 4.28551C24.7175 4.4517 24.9515 4.69972 25.1176 5.02955C25.2838 5.35937 25.3669 5.76719 25.3669 6.25298V10H24.2202V6.39105C24.2202 5.96406 24.109 5.6304 23.8865 5.39006C23.6641 5.14716 23.3586 5.02571 22.9699 5.02571C22.704 5.02571 22.4675 5.08324 22.2604 5.1983C22.0559 5.31335 21.8935 5.4821 21.7733 5.70455C21.6557 5.92443 21.5969 6.19034 21.5969 6.50227ZM29.7631 12.2091V4.10909H30.883V5.06406H30.9788C31.0453 4.94134 31.1412 4.79943 31.2665 4.63835C31.3918 4.47727 31.5656 4.33665 31.7881 4.21648C32.0105 4.09375 32.3045 4.03239 32.6702 4.03239C33.1457 4.03239 33.5702 4.15256 33.9435 4.3929C34.3168 4.63324 34.6095 4.97969 34.8217 5.43224C35.0365 5.8848 35.1439 6.4294 35.1439 7.06605C35.1439 7.7027 35.0378 8.24858 34.8256 8.70369C34.6133 9.15625 34.3219 9.50526 33.9511 9.75071C33.5804 9.99361 33.1572 10.1151 32.6817 10.1151C32.3237 10.1151 32.031 10.055 31.8034 9.9348C31.5784 9.81463 31.402 9.67401 31.2741 9.51293C31.1463 9.35185 31.0479 9.20866 30.9788 9.08338H30.9098V12.2091H29.7631ZM30.8868 7.05455C30.8868 7.46875 30.9469 7.83182 31.067 8.14375C31.1872 8.45568 31.3611 8.69986 31.5886 8.87628C31.8162 9.05014 32.0949 9.13707 32.4247 9.13707C32.7673 9.13707 33.0537 9.04631 33.2838 8.86477C33.5139 8.68068 33.6878 8.43139 33.8054 8.1169C33.9256 7.80241 33.9857 7.4483 33.9857 7.05455C33.9857 6.66591 33.9268 6.3169 33.8092 6.00753C33.6942 5.69815 33.5203 5.45398 33.2876 5.275C33.0575 5.09602 32.7699 5.00653 32.4247 5.00653C32.0923 5.00653 31.8111 5.09219 31.581 5.26349C31.3534 5.4348 31.1808 5.67386 31.0632 5.98068C30.9456 6.2875 30.8868 6.64545 30.8868 7.05455ZM38.143 10.1304C37.7697 10.1304 37.4322 10.0614 37.1305 9.9233C36.8288 9.78267 36.5898 9.5794 36.4134 9.31349C36.2395 9.04759 36.1526 8.72159 36.1526 8.33551C36.1526 8.00312 36.2165 7.72955 36.3443 7.51477C36.4722 7.3 36.6447 7.12997 36.8621 7.00469C37.0794 6.8794 37.3223 6.7848 37.5908 6.72088C37.8592 6.65696 38.1328 6.60838 38.4115 6.57514C38.7643 6.53423 39.0507 6.50099 39.2706 6.47543C39.4905 6.4473 39.6503 6.40256 39.75 6.34119C39.8497 6.27983 39.8996 6.18011 39.8996 6.04205V6.0152C39.8996 5.68026 39.805 5.42074 39.6158 5.23665C39.4291 5.05256 39.1504 4.96051 38.7797 4.96051C38.3936 4.96051 38.0893 5.04616 37.8669 5.21747C37.647 5.38622 37.4949 5.57415 37.4105 5.78125L36.3328 5.5358C36.4607 5.17784 36.6473 4.88892 36.8928 4.66903C37.1408 4.44659 37.4259 4.28551 37.748 4.18579C38.0702 4.08352 38.4089 4.03239 38.7643 4.03239C38.9996 4.03239 39.2489 4.06051 39.5122 4.11676C39.7781 4.17045 40.0261 4.27017 40.2562 4.41591C40.4889 4.56165 40.6794 4.77003 40.8277 5.04105C40.976 5.30952 41.0501 5.65852 41.0501 6.08807V10H39.9303V9.1946H39.8842C39.8101 9.3429 39.6989 9.48864 39.5506 9.63182C39.4023 9.775 39.2118 9.89389 38.9791 9.98849C38.7464 10.0831 38.4678 10.1304 38.143 10.1304ZM38.3923 9.20994C38.7094 9.20994 38.9804 9.1473 39.2054 9.02202C39.433 8.89673 39.6055 8.7331 39.7232 8.53111C39.8433 8.32656 39.9034 8.10795 39.9034 7.87528V7.11591C39.8625 7.15682 39.7832 7.19517 39.6656 7.23097C39.5506 7.2642 39.4189 7.29361 39.2706 7.31918C39.1223 7.34219 38.9778 7.36392 38.8372 7.38437C38.6966 7.40227 38.579 7.41761 38.4844 7.4304C38.2619 7.45852 38.0587 7.50582 37.8746 7.5723C37.693 7.63878 37.5473 7.73466 37.4374 7.85994C37.33 7.98267 37.2763 8.14631 37.2763 8.35085C37.2763 8.63466 37.3811 8.84943 37.5908 8.99517C37.8004 9.13835 38.0676 9.20994 38.3923 9.20994ZM42.5775 10V4.10909H43.6859V5.04489H43.7473C43.8546 4.72784 44.0439 4.47855 44.3149 4.29702C44.5885 4.11293 44.8978 4.02088 45.243 4.02088C45.3146 4.02088 45.399 4.02344 45.4961 4.02855C45.5958 4.03366 45.6738 4.04006 45.7301 4.04773V5.1446C45.6841 5.13182 45.6022 5.11776 45.4846 5.10241C45.367 5.08452 45.2494 5.07557 45.1318 5.07557C44.8608 5.07557 44.6191 5.1331 44.4069 5.24815C44.1973 5.36065 44.0311 5.5179 43.9083 5.71989C43.7856 5.91932 43.7243 6.14687 43.7243 6.40256V10H42.5775ZM49.8203 4.10909V5.02955H46.6026V4.10909H49.8203ZM47.4655 2.69773H48.6122V8.27031C48.6122 8.49276 48.6455 8.66023 48.712 8.77273C48.7784 8.88267 48.8641 8.9581 48.9689 8.99901C49.0763 9.03736 49.1926 9.05653 49.3179 9.05653C49.41 9.05653 49.4905 9.05014 49.5595 9.03736C49.6286 9.02457 49.6823 9.01435 49.7206 9.00668L49.9277 9.95398C49.8613 9.97955 49.7667 10.0051 49.6439 10.0307C49.5212 10.0588 49.3678 10.0741 49.1837 10.0767C48.882 10.0818 48.6007 10.0281 48.3399 9.91562C48.0792 9.80312 47.8682 9.62926 47.7071 9.39403C47.5461 9.15881 47.4655 8.86349 47.4655 8.5081V2.69773ZM52.2356 6.50227V10H51.0888V4.10909H52.1896V5.0679H52.2624C52.3979 4.75597 52.6102 4.5054 52.8991 4.31619C53.1906 4.12699 53.5575 4.03239 53.9998 4.03239C54.4012 4.03239 54.7528 4.11676 55.0545 4.28551C55.3562 4.4517 55.5901 4.69972 55.7563 5.02955C55.9225 5.35937 56.0056 5.76719 56.0056 6.25298V10H54.8589V6.39105C54.8589 5.96406 54.7477 5.6304 54.5252 5.39006C54.3028 5.14716 53.9972 5.02571 53.6086 5.02571C53.3427 5.02571 53.1062 5.08324 52.8991 5.1983C52.6945 5.31335 52.5322 5.4821 52.412 5.70455C52.2944 5.92443 52.2356 6.19034 52.2356 6.50227ZM60.0825 10.1189C59.5021 10.1189 59.0022 9.99489 58.5829 9.74687C58.1661 9.49631 57.844 9.14474 57.6164 8.69219C57.3914 8.23707 57.2789 7.70398 57.2789 7.0929C57.2789 6.48949 57.3914 5.95767 57.6164 5.49744C57.844 5.03722 58.161 4.67798 58.5675 4.41974C58.9766 4.16151 59.4548 4.03239 60.0019 4.03239C60.3343 4.03239 60.6565 4.08736 60.9684 4.1973C61.2803 4.30724 61.5603 4.47983 61.8083 4.71506C62.0563 4.95028 62.2519 5.25582 62.3951 5.63168C62.5383 6.00497 62.6099 6.45881 62.6099 6.99318V7.39972H57.9271V6.54062H61.4862C61.4862 6.23892 61.4248 5.97173 61.3021 5.73906C61.1793 5.50384 61.0067 5.31847 60.7843 5.18295C60.5644 5.04744 60.3062 4.97969 60.0096 4.97969C59.6874 4.97969 59.4062 5.05895 59.1658 5.21747C58.9281 5.37344 58.744 5.57798 58.6136 5.83111C58.4857 6.08168 58.4218 6.35398 58.4218 6.64801V7.31918C58.4218 7.71293 58.4908 8.04787 58.6289 8.32401C58.7695 8.60014 58.9651 8.81108 59.2157 8.95682C59.4663 9.1 59.759 9.17159 60.094 9.17159C60.3113 9.17159 60.5094 9.14091 60.6884 9.07955C60.8674 9.01562 61.0221 8.92102 61.1525 8.79574C61.2829 8.67045 61.3826 8.51577 61.4516 8.33168L62.537 8.52727C62.4501 8.84687 62.2941 9.12685 62.0691 9.36719C61.8467 9.60497 61.5667 9.79034 61.2292 9.9233C60.8942 10.0537 60.512 10.1189 60.0825 10.1189ZM63.8822 10V4.10909H64.9906V5.04489H65.052C65.1593 4.72784 65.3485 4.47855 65.6196 4.29702C65.8931 4.11293 66.2025 4.02088 66.5477 4.02088C66.6193 4.02088 66.7037 4.02344 66.8008 4.02855C66.9005 4.03366 66.9785 4.04006 67.0348 4.04773V5.1446C66.9887 5.13182 66.9069 5.11776 66.7893 5.10241C66.6717 5.08452 66.5541 5.07557 66.4365 5.07557C66.1654 5.07557 65.9238 5.1331 65.7116 5.24815C65.502 5.36065 65.3358 5.5179 65.213 5.71989C65.0903 5.91932 65.0289 6.14687 65.0289 6.40256V10H63.8822ZM72.4415 5.5473L71.4021 5.73139C71.3587 5.59844 71.2896 5.47187 71.195 5.3517C71.103 5.23153 70.9777 5.1331 70.8192 5.05639C70.6607 4.97969 70.4625 4.94133 70.2247 4.94133C69.9 4.94133 69.629 5.0142 69.4116 5.15994C69.1943 5.30312 69.0857 5.48849 69.0857 5.71605C69.0857 5.91293 69.1585 6.07145 69.3043 6.19162C69.45 6.31179 69.6852 6.41023 70.0099 6.48693L70.9457 6.7017C71.4878 6.82699 71.8918 7.02003 72.1577 7.28082C72.4236 7.54162 72.5565 7.8804 72.5565 8.29716C72.5565 8.65 72.4543 8.96449 72.2497 9.24062C72.0477 9.5142 71.7652 9.72898 71.4021 9.88494C71.0416 10.0409 70.6236 10.1189 70.148 10.1189C69.4884 10.1189 68.9501 9.97827 68.5334 9.69702C68.1166 9.41321 67.8609 9.01051 67.7663 8.48892L68.8747 8.32017C68.9437 8.60909 69.0857 8.8277 69.3004 8.97599C69.5152 9.12173 69.7952 9.1946 70.1403 9.1946C70.5162 9.1946 70.8166 9.11662 71.0416 8.96065C71.2666 8.80213 71.3791 8.60909 71.3791 8.38153C71.3791 8.19744 71.3101 8.04276 71.172 7.91747C71.0365 7.79219 70.8281 7.69759 70.5469 7.63366L69.5497 7.41506C69 7.28977 68.5935 7.09034 68.3301 6.81676C68.0693 6.54318 67.9389 6.19673 67.9389 5.77741C67.9389 5.42969 68.0361 5.12543 68.2304 4.86463C68.4247 4.60384 68.6932 4.40057 69.0358 4.25483C69.3784 4.10653 69.7709 4.03239 70.2132 4.03239C70.8499 4.03239 71.351 4.17045 71.7166 4.44659C72.0822 4.72017 72.3239 5.08707 72.4415 5.5473ZM74.9641 6.50227V10H73.8174V2.14545H74.9488V5.0679H75.0216C75.1597 4.75085 75.3706 4.49901 75.6544 4.31236C75.9382 4.12571 76.309 4.03239 76.7667 4.03239C77.1706 4.03239 77.5235 4.11548 77.8252 4.28168C78.1294 4.44787 78.3647 4.69588 78.5309 5.02571C78.6996 5.35298 78.784 5.76207 78.784 6.25298V10H77.6372V6.39105C77.6372 5.95895 77.526 5.62401 77.3036 5.38622C77.0811 5.14588 76.7718 5.02571 76.3755 5.02571C76.1044 5.02571 75.8615 5.08324 75.6468 5.1983C75.4346 5.31335 75.2671 5.4821 75.1444 5.70455C75.0242 5.92443 74.9641 6.19034 74.9641 6.50227ZM80.3142 10V4.10909H81.461V10H80.3142ZM80.8934 3.20014C80.6939 3.20014 80.5226 3.13366 80.3794 3.00071C80.2388 2.8652 80.1685 2.70412 80.1685 2.51747C80.1685 2.32827 80.2388 2.16719 80.3794 2.03423C80.5226 1.89872 80.6939 1.83097 80.8934 1.83097C81.0928 1.83097 81.2628 1.89872 81.4034 2.03423C81.5466 2.16719 81.6182 2.32827 81.6182 2.51747C81.6182 2.70412 81.5466 2.8652 81.4034 3.00071C81.2628 3.13366 81.0928 3.20014 80.8934 3.20014ZM83.0037 12.2091V4.10909H84.1236V5.06406H84.2195C84.2859 4.94134 84.3818 4.79943 84.5071 4.63835C84.6324 4.47727 84.8062 4.33665 85.0287 4.21648C85.2511 4.09375 85.5452 4.03239 85.9108 4.03239C86.3864 4.03239 86.8108 4.15256 87.1841 4.3929C87.5574 4.63324 87.8501 4.97969 88.0624 5.43224C88.2771 5.8848 88.3845 6.4294 88.3845 7.06605C88.3845 7.7027 88.2784 8.24858 88.0662 8.70369C87.854 9.15625 87.5625 9.50526 87.1918 9.75071C86.821 9.99361 86.3979 10.1151 85.9223 10.1151C85.5643 10.1151 85.2716 10.055 85.044 9.9348C84.819 9.81463 84.6426 9.67401 84.5148 9.51293C84.3869 9.35185 84.2885 9.20866 84.2195 9.08338H84.1504V12.2091H83.0037ZM84.1274 7.05455C84.1274 7.46875 84.1875 7.83182 84.3077 8.14375C84.4278 8.45568 84.6017 8.69986 84.8293 8.87628C85.0568 9.05014 85.3355 9.13707 85.6653 9.13707C86.008 9.13707 86.2943 9.04631 86.5244 8.86477C86.7545 8.68068 86.9284 8.43139 87.046 8.1169C87.1662 7.80241 87.2263 7.4483 87.2263 7.05455C87.2263 6.66591 87.1675 6.3169 87.0499 6.00753C86.9348 5.69815 86.7609 5.45398 86.5283 5.275C86.2982 5.09602 86.0105 5.00653 85.6653 5.00653C85.333 5.00653 85.0517 5.09219 84.8216 5.26349C84.594 5.4348 84.4214 5.67386 84.3038 5.98068C84.1862 6.2875 84.1274 6.64545 84.1274 7.05455ZM93.8046 10L92.0711 4.10909H93.2562L94.4106 8.43523H94.4681L95.6264 4.10909H96.8115L97.962 8.41605H98.0196L99.1663 4.10909H100.351L98.6217 10H97.452L96.2554 5.74673H96.1671L94.9706 10H93.8046ZM101.44 10V4.10909H102.586V10H101.44ZM102.019 3.20014C101.819 3.20014 101.648 3.13366 101.505 3.00071C101.364 2.8652 101.294 2.70412 101.294 2.51747C101.294 2.32827 101.364 2.16719 101.505 2.03423C101.648 1.89872 101.819 1.83097 102.019 1.83097C102.218 1.83097 102.388 1.89872 102.529 2.03423C102.672 2.16719 102.744 2.32827 102.744 2.51747C102.744 2.70412 102.672 2.8652 102.529 3.00071C102.388 3.13366 102.218 3.20014 102.019 3.20014ZM106.879 4.10909V5.02955H103.661V4.10909H106.879ZM104.524 2.69773H105.671V8.27031C105.671 8.49276 105.704 8.66023 105.771 8.77273C105.837 8.88267 105.923 8.9581 106.028 8.99901C106.135 9.03736 106.251 9.05653 106.377 9.05653C106.469 9.05653 106.549 9.05014 106.618 9.03736C106.687 9.02457 106.741 9.01435 106.779 9.00668L106.986 9.95398C106.92 9.97955 106.825 10.0051 106.703 10.0307C106.58 10.0588 106.426 10.0741 106.242 10.0767C105.941 10.0818 105.659 10.0281 105.399 9.91562C105.138 9.80312 104.927 9.62926 104.766 9.39403C104.605 9.15881 104.524 8.86349 104.524 8.5081V2.69773ZM109.421 6.50227V10H108.274V2.14545H109.405V5.0679H109.478C109.616 4.75085 109.827 4.49901 110.111 4.31236C110.395 4.12571 110.766 4.03239 111.223 4.03239C111.627 4.03239 111.98 4.11548 112.282 4.28168C112.586 4.44787 112.821 4.69588 112.987 5.02571C113.156 5.35298 113.241 5.76207 113.241 6.25298V10H112.094V6.39105C112.094 5.95895 111.983 5.62401 111.76 5.38622C111.538 5.14588 111.228 5.02571 110.832 5.02571C110.561 5.02571 110.318 5.08324 110.103 5.1983C109.891 5.31335 109.724 5.4821 109.601 5.70455C109.481 5.92443 109.421 6.19034 109.421 6.50227Z" fill="#8A929D"/>
</g>
<defs>
<clipPath id="clip0_13156_2214">
<rect width="120" height="48" fill="white"/>
</clipPath>
</defs>
</svg>
