<svg width="186" height="48" viewBox="0 0 186 48" fill="none" xmlns="http://www.w3.org/2000/svg">
<rect x="0.5" y="0.5" width="184.999" height="47" rx="7.5" fill="white"/>
<rect x="0.5" y="0.5" width="184.999" height="47" rx="7.5" stroke="#DCDEE5"/>
<path d="M43.9588 22.9152C43.3599 14.0982 35.728 7.43909 26.9136 8.03801C22.5227 8.33721 18.6668 10.3825 15.9756 13.4465L15.9676 13.4412C15.9484 13.4657 15.9318 13.4902 15.9153 13.5148C13.2428 16.5979 11.7388 20.6944 12.0375 25.0864C12.0652 25.5056 12.1143 25.9163 12.1745 26.3237C12.1745 26.3435 12.1799 26.3595 12.1825 26.3787C12.2236 26.6469 12.2705 26.9157 12.3223 27.1787C12.3713 27.4217 12.4261 27.6635 12.4865 27.904C14.3351 35.2724 21.2379 40.4911 29.0853 39.9572C37.8997 39.3577 44.5615 31.7263 43.962 22.9099L43.9588 22.9152ZM40.4762 23.1531C40.5503 24.2379 40.4815 25.3003 40.2874 26.3243C40.2874 26.3189 40.282 26.3136 40.282 26.3077C39.1205 23.4736 36.8261 21.4256 34.8106 20.2944C35.2186 15.4918 33.5893 13.4657 31.744 13.1372C31.3864 13.07 31.0189 13.0766 30.664 13.1567C30.3091 13.2367 29.9743 13.3884 29.6802 13.6026C29.386 13.8166 29.1388 14.0886 28.9536 14.4018C28.7684 14.7149 28.6491 15.0627 28.6032 15.4236C28.5583 15.7717 28.5824 16.1253 28.6743 16.4641C28.7662 16.8028 28.924 17.1202 29.1387 17.3979C29.3534 17.6756 29.6208 17.9083 29.9255 18.0825C30.2303 18.2568 30.5664 18.3692 30.9147 18.4134C31.0432 18.4299 31.1691 18.4353 31.2923 18.4326C31.3012 18.604 31.3059 18.7756 31.3061 18.9473C29.6 18.5259 28.0064 18.4406 26.5526 18.5723C26.0059 18.6082 25.4617 18.6768 24.9232 18.7777C25.1046 17.1563 25.7147 15.3329 26.895 14.0022C28.0363 12.7126 29.7344 11.9761 31.5851 12.1649C31.936 12.2006 32.3109 12.2881 32.6474 12.4006C32.664 12.406 32.6805 12.4113 32.6944 12.414C36.9823 14.1612 40.1396 18.2326 40.4735 23.1531H40.4762ZM29.3237 25.5957C29.3237 25.5957 29.3237 25.5984 29.3211 25.6011C28.9165 26.1824 28.4581 26.7244 27.952 27.2197C27.1854 26.41 26.5364 25.4965 26.024 24.5061C25.9995 24.4539 25.9723 24.4075 25.9472 24.3552V24.3499C25.647 23.7081 25.4068 23.0398 25.2299 22.3536C26.3659 22.0854 27.4806 21.9867 28.5461 22.039L28.7157 22.047H28.7211C29.3893 22.1019 30.0848 22.2251 30.8048 22.4224C30.4706 23.5463 29.9724 24.6146 29.3264 25.5931L29.3237 25.5957ZM23.8582 12.198L23.8502 12.2086C21.9745 14.6294 21.3499 17.6385 21.3777 19.9494C17.0129 21.9974 16.0764 24.4208 16.7116 26.184C16.7276 26.2336 16.7473 26.28 16.7665 26.3269C17.0402 26.9806 17.5622 27.4989 18.2178 27.768C18.8734 28.037 19.6091 28.0347 20.263 27.7616C20.9167 27.4879 21.435 26.9659 21.704 26.3103C21.9731 25.6546 21.9707 24.919 21.6977 24.2651C21.648 24.1489 21.5904 24.0363 21.5254 23.928C21.6625 23.8373 21.8102 23.7477 21.9691 23.6544C22.4561 25.344 23.1766 26.7707 24.0171 27.9642C24.3211 28.416 24.6496 28.8512 25.008 29.2704C23.5131 29.9248 21.6294 30.3082 19.8849 29.952C18.1985 29.6074 16.7116 28.5066 15.9478 26.8085C15.8015 26.4755 15.6914 26.1277 15.6193 25.7712C15.5743 25.465 15.5405 25.1572 15.518 24.8485C15.1287 19.1174 18.6833 14.0161 23.8582 12.198ZM28.8469 36.4772C25.4438 36.7098 22.2619 35.5492 19.8577 33.4842C22.8918 33.8981 25.8107 32.9338 27.799 31.7541C31.7552 34.5114 34.3237 34.1114 35.5338 32.6794C35.7709 32.403 35.949 32.0811 36.0572 31.7334C36.1653 31.3857 36.2013 31.0196 36.1628 30.6574C36.1244 30.2954 36.0123 29.9449 35.8336 29.6278C35.6547 29.3105 35.413 29.0332 35.1232 28.8128C34.844 28.5999 34.5256 28.4442 34.1862 28.3545C33.8467 28.2647 33.493 28.2428 33.1451 28.2898C32.7972 28.3369 32.462 28.452 32.1586 28.6287C31.8552 28.8054 31.5896 29.0401 31.3771 29.3194C31.3008 29.4208 31.232 29.5306 31.1717 29.64C31.0267 29.5658 30.8731 29.4837 30.7173 29.3936C31.8321 28.2435 32.7456 26.9142 33.4197 25.4613C33.661 24.9696 33.8731 24.464 34.0549 23.9472C35.3696 24.9168 36.6453 26.3541 37.2095 28.0432C37.7546 29.6752 37.5461 31.5151 36.4565 33.0245C36.2412 33.3173 35.9952 33.5862 35.7226 33.8266L35.712 33.8373C33.743 35.3882 31.351 36.3075 28.8501 36.4746L28.8469 36.4772Z" fill="url(#paint0_linear_13156_2262)"/>
<path style="mix-blend-mode:overlay" opacity="0.9" d="M31.744 13.1344C31.4439 13.0774 31.1361 13.0738 30.8347 13.1237C32.3659 13.9557 33.48 16.2751 32.8944 20.8532C32.7005 22.3421 32.263 23.789 31.5995 25.1358C31.0277 26.3649 30.2834 27.5062 29.3894 28.5251C29.8132 28.844 30.2568 29.1357 30.7174 29.3987C31.8322 28.2489 32.7459 26.9198 33.4203 25.467C34.0854 24.1208 34.5229 22.6737 34.7152 21.1844C35.4139 15.7354 33.6997 13.4847 31.7446 13.1365L31.744 13.1344Z" fill="url(#paint1_radial_13156_2262)"/>
<g style="mix-blend-mode:overlay" opacity="0.8">
<path d="M32.8937 20.8505C33.4798 16.2746 32.3651 13.953 30.8345 13.1205C30.7742 13.1285 30.7171 13.1424 30.6563 13.1562C32.1545 14.0186 33.2329 16.3349 32.6553 20.8505C32.4614 22.3394 32.0239 23.7863 31.3603 25.1332C30.8092 26.3188 30.0969 27.4225 29.2436 28.4131C29.2926 28.4515 29.3396 28.4873 29.3886 28.5225C30.282 27.5029 31.0259 26.3615 31.5982 25.1326C32.2635 23.7864 32.7013 22.3398 32.8937 20.8505Z" fill="white"/>
</g>
<path style="mix-blend-mode:overlay" opacity="0.5" d="M27.0752 31.2307C26.9301 31.1213 26.793 31.0061 26.6538 30.8909C24.3947 31.8333 21.2645 32.4243 18.1542 31.7016C18.6607 32.3504 19.2302 32.9474 19.8544 33.484C22.8885 33.8978 25.8074 32.9336 27.7957 31.7539C27.5513 31.5831 27.3102 31.4078 27.0725 31.228L27.0752 31.2307Z" fill="url(#paint2_radial_13156_2262)"/>
<path style="mix-blend-mode:overlay" opacity="0.6" d="M26.6561 30.891C26.5878 30.8334 26.5169 30.7763 26.4513 30.7188C24.1755 31.6275 21.0294 32.1726 17.9271 31.3977C18.0039 31.499 18.0807 31.603 18.1569 31.7017C21.2652 32.4243 24.3969 31.8334 26.6561 30.891Z" fill="url(#paint3_linear_13156_2262)"/>
<path style="mix-blend-mode:overlay" opacity="0.9" d="M16.7137 26.187C16.7297 26.2361 16.7494 26.283 16.7686 26.3294C16.8699 26.5705 17.0011 26.7865 17.1601 26.9811C17.1163 25.2398 18.5675 23.1118 22.8224 21.3321C24.2087 20.7555 25.6805 20.4114 27.1787 20.3135C28.5294 20.193 29.8904 20.2668 31.2202 20.5327C31.289 19.9577 31.3162 19.4212 31.3109 18.9471C29.7577 18.5561 28.1499 18.4293 26.5547 18.5721C25.0563 18.6703 23.5844 19.0144 22.1979 19.5908C17.1302 21.7102 16.0374 24.3198 16.7142 26.1897L16.7137 26.187Z" fill="url(#paint4_radial_13156_2262)"/>
<g style="mix-blend-mode:overlay" opacity="0.8">
<path d="M22.8227 21.3349C18.5678 23.1151 17.1161 25.2426 17.1603 26.9839C17.1987 27.0303 17.2398 27.0746 17.2809 27.1183C17.2777 25.3903 18.7454 23.2986 22.9432 21.5402C24.3295 20.9636 25.8013 20.6195 27.2995 20.5216C28.6018 20.4064 29.9138 20.4709 31.1986 20.7136C31.2072 20.6535 31.2145 20.5932 31.2205 20.5328C29.8905 20.2684 28.5296 20.1948 27.1789 20.3141C25.6808 20.4123 24.209 20.7564 22.8227 21.3328V21.3349Z" fill="white"/>
</g>
<path style="mix-blend-mode:overlay" opacity="0.4" d="M34.7206 21.1816C34.6992 21.3624 34.6688 21.5374 34.6384 21.7155C36.5824 23.1998 38.6608 25.6173 39.592 28.6701C39.8997 27.9062 40.1318 27.114 40.2848 26.3048C39.1264 23.4707 36.832 21.4248 34.8166 20.2942C34.792 20.5822 34.7616 20.875 34.7232 21.1816H34.7206Z" fill="url(#paint5_radial_13156_2262)"/>
<path style="mix-blend-mode:overlay" opacity="0.5" d="M34.6385 21.7155C34.622 21.8029 34.6081 21.8936 34.5916 21.9811C36.5169 23.4978 38.5622 25.949 39.4411 29.0237C39.4928 28.9063 39.5424 28.7879 39.5888 28.6706C38.6582 25.6173 36.5825 23.2024 34.6353 21.7155H34.6385Z" fill="url(#paint6_linear_13156_2262)"/>
<path style="mix-blend-mode:overlay" opacity="0.9" d="M35.5335 32.6766C35.7314 32.4435 35.8888 32.1789 35.9991 31.8937C34.5122 32.8025 31.9458 32.6084 28.2744 29.8121C27.0808 28.9005 26.0464 27.7976 25.2131 26.5482C24.4333 25.439 23.8164 24.2238 23.3811 22.9397C22.8499 23.1669 22.371 23.4133 21.9603 23.6543C22.3992 25.1947 23.0932 26.6506 24.0136 27.9615C24.8349 29.1881 25.8589 30.2975 27.0749 31.2255C31.445 34.555 34.2519 34.1961 35.5303 32.6761L35.5335 32.6766Z" fill="url(#paint7_radial_13156_2262)"/>
<g style="mix-blend-mode:overlay" opacity="0.8">
<path d="M28.2769 29.8125C31.9457 32.6077 34.5142 32.8023 36.0006 31.893C36.0224 31.8359 36.0416 31.7783 36.0582 31.7234C34.5633 32.5917 32.0166 32.3639 28.3969 29.6072C27.2034 28.6955 26.169 27.5926 25.3356 26.3432C24.5846 25.2733 23.9848 24.105 23.5532 22.8712C23.4956 22.8957 23.4412 22.9176 23.3863 22.9421C23.8214 24.2264 24.4381 25.4418 25.2177 26.5512C26.0391 27.7778 27.0631 28.8872 28.279 29.8152L28.2769 29.8125Z" fill="white"/>
</g>
<path style="mix-blend-mode:overlay" opacity="0.3" d="M22.1956 19.5855C22.3625 19.5167 22.5295 19.4538 22.6991 19.3909C23.0116 16.9647 24.0655 13.9557 26.2457 11.6256C25.4297 11.7429 24.6271 11.9349 23.8495 12.2058C21.9732 14.6266 21.3492 17.6357 21.3769 19.9471C21.6367 19.8245 21.9081 19.7034 22.1929 19.5861L22.1956 19.5855Z" fill="url(#paint8_radial_13156_2262)"/>
<path style="mix-blend-mode:overlay" opacity="0.4" d="M22.6989 19.3909C22.7843 19.361 22.8664 19.328 22.9512 19.2981C23.3016 16.8715 24.4024 13.8763 26.6232 11.576C26.4973 11.5899 26.3709 11.6064 26.245 11.623C24.0653 13.9558 23.0115 16.9621 22.6995 19.3882V19.3909H22.6989Z" fill="url(#paint9_linear_13156_2262)"/>
<path style="mix-blend-mode:multiply" opacity="0.4" d="M26.9134 8.03847C22.5214 8.33714 18.6665 10.3825 15.9748 13.4464L15.9146 13.5147C16.4372 14.0352 18.1513 15.0592 18.8441 15.4864C20.2247 13.9991 21.9466 12.8704 23.8612 12.1979C23.9956 12.0224 24.1374 11.8502 24.2857 11.6832C26.0926 9.64326 28.5598 8.567 31.4238 8.567C31.7416 8.567 32.3907 8.61927 32.404 8.61927C30.622 8.10662 28.7639 7.90987 26.9139 8.03794L26.9134 8.03847Z" fill="url(#paint10_linear_13156_2262)"/>
<path style="mix-blend-mode:multiply" opacity="0.4" d="M28.8468 36.4798C25.4436 36.7123 22.2618 35.5518 19.8575 33.4873C19.6317 33.4578 19.4071 33.4202 19.184 33.3747C16.5141 32.8297 14.3456 31.2307 12.9163 28.7529C12.7589 28.4791 12.6154 28.1975 12.4864 27.9092C14.3349 35.2776 21.2378 40.4968 29.0825 39.9624C29.1183 39.1549 28.8799 37.2798 28.8441 36.4798H28.8468Z" fill="url(#paint11_linear_13156_2262)"/>
<path style="mix-blend-mode:multiply" opacity="0.4" d="M43.9591 22.915C43.4663 22.8654 41.0674 23.0547 40.4765 23.1529C40.5501 24.2377 40.4818 25.3 40.2871 26.324C40.3693 26.5267 40.4487 26.7347 40.5197 26.9454C41.3826 29.5304 41.0813 32.2056 39.6519 34.6861C39.4937 34.9594 39.322 35.2246 39.1373 35.4808C39.1373 35.4808 39.1453 35.4749 39.1479 35.4696C42.3986 32.3069 44.2903 27.7944 43.9591 22.9177V22.915Z" fill="url(#paint12_linear_13156_2262)"/>
<path style="mix-blend-mode:multiply" opacity="0.5" d="M31.5881 12.1621C31.9385 12.1979 32.3135 12.2853 32.6505 12.3979C32.6665 12.4032 32.6836 12.4085 32.6969 12.4112C34.0705 12.9718 35.334 13.771 36.4292 14.7717C36.4292 14.7717 36.4345 14.7744 36.4372 14.7771C36.963 14.1776 37.9732 13.5179 37.9732 13.5179C37.9732 13.5179 36.4265 11.935 34.058 11.4422C32.4015 11.0971 28.6639 10.7659 26.3061 14.7771L26.3279 14.7557C26.5034 14.4923 26.6869 14.2352 26.8975 13.9995C28.0394 12.7099 29.737 11.9728 31.5881 12.1621Z" fill="url(#paint13_linear_13156_2262)"/>
<path style="mix-blend-mode:multiply" opacity="0.5" d="M36.4566 33.027C36.2414 33.3198 35.9953 33.5888 35.7227 33.8291C35.7121 33.8398 35.6982 33.851 35.687 33.8622C34.5147 34.7707 33.1911 35.4649 31.7772 35.9128C31.7745 35.9128 31.7718 35.9128 31.7686 35.9155C32.0262 36.6712 32.0918 37.876 32.0918 37.876C32.0918 37.876 34.2358 37.3288 35.8465 35.5241C36.9718 34.2617 39.1291 31.1897 36.8342 27.1428C36.8342 27.1428 36.8374 27.1561 36.8427 27.1727C36.9851 27.4553 37.1137 27.7449 37.2123 28.0436C37.7574 29.6756 37.5489 31.5156 36.4593 33.0243L36.4566 33.027Z" fill="url(#paint14_linear_13156_2262)"/>
<path style="mix-blend-mode:multiply" opacity="0.5" d="M15.9536 26.8144C15.8071 26.4812 15.6967 26.1333 15.6245 25.7765C15.6219 25.7605 15.6165 25.7435 15.6139 25.7269C15.4112 24.2512 15.4768 22.7563 15.792 21.3163V21.3078C15.0085 21.1542 13.9328 20.607 13.9328 20.607C13.9328 20.607 13.3355 22.7403 14.0944 25.0347C14.6256 26.6416 16.2053 30.0453 20.857 30.081C20.857 30.081 20.8437 30.0778 20.8272 30.0725C20.5125 30.0533 20.1978 30.0207 19.8885 29.9578C18.2016 29.6128 16.7147 28.512 15.9504 26.8144H15.9536Z" fill="url(#paint15_linear_13156_2262)"/>
<path style="mix-blend-mode:multiply" opacity="0.6" d="M30.9141 18.4111C31.0427 18.4271 31.1685 18.4325 31.2917 18.4298C31.2917 18.4298 31.2069 16.7679 31.0043 15.9136C30.7989 15.0618 30.4976 14.4949 30.1691 14.1749C29.9312 13.945 29.1835 13.6597 28.6032 15.4176C28.5582 15.7657 28.5823 16.1193 28.6741 16.4581C28.7659 16.797 28.9237 17.1143 29.1384 17.3921C29.353 17.6699 29.6203 17.9026 29.9251 18.0769C30.2298 18.2512 30.5659 18.3637 30.9141 18.4079V18.4106V18.4111Z" fill="url(#paint16_linear_13156_2262)"/>
<path style="mix-blend-mode:multiply" opacity="0.5" d="M21.7012 24.2702C21.6512 24.1543 21.5935 24.0418 21.5284 23.9337C21.5284 23.9337 20.1289 24.8372 19.4937 25.4393C18.8585 26.042 18.5188 26.587 18.4068 27.0329C18.3273 27.3534 18.4532 28.1422 20.266 27.7667C20.9197 27.4931 21.438 26.9711 21.707 26.3155C21.976 25.6598 21.9737 24.9242 21.7006 24.2702H21.7012Z" fill="url(#paint17_linear_13156_2262)"/>
<path style="mix-blend-mode:multiply" opacity="0.6" d="M31.3802 29.3165C31.3034 29.4178 31.2352 29.5277 31.1749 29.6365C31.1749 29.6365 32.6565 30.3954 33.497 30.6445C34.3375 30.8941 34.9781 30.916 35.4191 30.7896C35.737 30.6994 36.3557 30.1928 35.1258 28.813C34.8467 28.6003 34.5283 28.4446 34.189 28.3549C33.8496 28.2653 33.4959 28.2433 33.1481 28.2904C32.8002 28.3374 32.4651 28.4525 32.1618 28.6291C31.8584 28.8058 31.5929 29.0404 31.3802 29.3197V29.3165Z" fill="url(#paint18_linear_13156_2262)"/>
<path style="mix-blend-mode:multiply" opacity="0.3" d="M30.8052 22.4248C30.4692 23.5422 29.9977 24.5581 29.4201 25.4531C29.3897 25.4995 29.3598 25.5464 29.3268 25.5955C29.3268 25.5955 29.3268 25.5981 29.3241 25.6008C28.9196 26.1821 28.4612 26.7241 27.955 27.2195C28.322 27.6083 28.7161 27.9859 29.1518 28.3448C29.6467 28.734 30.1701 29.0854 30.7177 29.396C31.8326 28.2461 32.7463 26.917 33.4206 25.4643C33.6618 24.9723 33.8737 24.4666 34.0553 23.9496C33.4915 23.5363 32.9219 23.2051 32.3966 22.9806C31.8787 22.7586 31.3461 22.5729 30.8025 22.4248H30.8057H30.8052Z" fill="url(#paint19_linear_13156_2262)"/>
<path style="mix-blend-mode:multiply" opacity="0.3" d="M19.8582 33.4873C22.8918 33.9006 25.8106 32.9369 27.7989 31.7566C27.5546 31.5859 27.3134 31.4106 27.0757 31.2308C26.3195 30.6523 25.626 29.9963 25.0064 29.2734C23.5109 29.9273 21.6272 30.3108 19.8827 29.9545C18.1963 29.61 16.7094 28.5092 15.9451 26.8116C15.7988 26.4784 15.6887 26.1304 15.6166 25.7737C16.0577 28.8676 17.6182 31.5673 19.8555 33.4867L19.8582 33.4873Z" fill="url(#paint20_linear_13156_2262)"/>
<path style="mix-blend-mode:multiply" opacity="0.3" d="M27.9547 27.2191C27.1883 26.4095 26.5395 25.4962 26.0273 24.5061C26.0027 24.4538 25.975 24.4074 25.9505 24.3551V24.3498C25.6502 23.708 25.41 23.0397 25.2331 22.3535C24.7126 22.4767 24.1899 22.6303 23.6641 22.8277C23.0803 23.061 22.5147 23.3373 21.9718 23.6543C22.4593 25.3439 23.1793 26.7706 24.0198 27.9642C24.3238 28.4159 24.6529 28.8511 25.0118 29.2703C25.6518 28.9908 26.2246 28.6596 26.6811 28.3172C27.1308 27.9795 27.5572 27.6117 27.9574 27.2164L27.9547 27.2191Z" fill="url(#paint21_linear_13156_2262)"/>
<path style="mix-blend-mode:multiply" opacity="0.3" d="M23.8504 12.2086C21.9747 14.6293 21.3501 17.6384 21.3779 19.9493C21.6482 19.8223 21.9211 19.7011 22.1965 19.5856C23.0742 19.2189 23.9883 18.9463 24.9234 18.7722C25.1048 17.1509 25.7149 15.3275 26.8951 13.9968C28.0365 12.7072 29.7346 11.9702 31.5858 12.1595C31.9362 12.1952 32.3111 12.2827 32.6482 12.3952C32.6642 12.4006 32.6807 12.4059 32.6946 12.4086C30.9375 11.6916 29.0394 11.3873 27.1463 11.519C25.9965 11.5984 24.8957 11.831 23.8552 12.1979C23.8525 12.2006 23.8498 12.2059 23.8472 12.2086H23.8504Z" fill="url(#paint22_linear_13156_2262)"/>
<path style="mix-blend-mode:multiply" opacity="0.3" d="M40.2847 26.3023C39.1241 23.4682 36.8292 21.4197 34.8138 20.289C34.7892 20.577 34.7594 20.8725 34.7178 21.1818C34.5956 22.125 34.3744 23.0528 34.058 23.9498C35.3727 24.9194 36.6484 26.3567 37.2127 28.0463C37.7572 29.6783 37.5492 31.5182 36.4596 33.027C36.2444 33.3199 35.9983 33.5888 35.7258 33.8291L35.7151 33.8398C38.0644 31.9945 39.7257 29.3332 40.2959 26.3215C40.2959 26.3161 40.2905 26.3103 40.2905 26.3049L40.2847 26.3023Z" fill="url(#paint23_linear_13156_2262)"/>
<path style="mix-blend-mode:multiply" opacity="0.3" d="M24.9153 20.6996C24.9823 21.2575 25.0875 21.81 25.23 22.3535C26.3665 22.0852 27.4806 21.9865 28.5462 22.0388L28.7158 22.0468H28.7211C29.3894 22.1017 30.0849 22.2249 30.8054 22.4223C30.9584 21.9103 31.0875 21.3785 31.1803 20.8255C31.2816 20.1359 31.3115 19.4975 31.3088 18.9417C29.6033 18.5204 28.0097 18.4351 26.5558 18.5668C26.0091 18.6027 25.465 18.6712 24.9265 18.7722C24.8497 19.4676 24.8465 20.1273 24.918 20.6975L24.9153 20.6996Z" fill="url(#paint24_linear_13156_2262)"/>
<path d="M52.8786 18V10.7273H55.5419C56.058 10.7273 56.4854 10.8125 56.8239 10.983C57.1624 11.151 57.4158 11.3795 57.5839 11.6683C57.7519 11.9548 57.836 12.2779 57.836 12.6378C57.836 12.9408 57.7803 13.1965 57.6691 13.4048C57.5578 13.6108 57.4087 13.7765 57.2216 13.902C57.037 14.0251 56.8334 14.1151 56.6108 14.1719V14.2429C56.8523 14.2547 57.0879 14.3329 57.3175 14.4773C57.5495 14.6193 57.7413 14.8217 57.8928 15.0845C58.0443 15.3473 58.1201 15.6669 58.1201 16.0433C58.1201 16.415 58.0325 16.7488 57.8573 17.0447C57.6845 17.3383 57.4169 17.5715 57.0547 17.7443C56.6925 17.9148 56.2297 18 55.6662 18H52.8786ZM53.9759 17.0589H55.5597C56.0853 17.0589 56.4617 16.9571 56.689 16.7536C56.9162 16.55 57.0299 16.2955 57.0299 15.9901C57.0299 15.7604 56.9719 15.5497 56.8559 15.358C56.7399 15.1662 56.5741 15.0135 56.3587 14.8999C56.1456 14.7862 55.8923 14.7294 55.5988 14.7294H53.9759V17.0589ZM53.9759 13.8736H55.4461C55.6923 13.8736 55.9136 13.8262 56.1101 13.7315C56.309 13.6368 56.4664 13.5043 56.5824 13.3338C56.7008 13.161 56.76 12.9574 56.76 12.723C56.76 12.4223 56.6546 12.1702 56.4439 11.9666C56.2332 11.763 55.9101 11.6612 55.4745 11.6612H53.9759V13.8736ZM62.7916 15.7379V12.5455H63.8569V18H62.8129V17.0554H62.7561C62.6306 17.3466 62.4294 17.5893 62.1524 17.7834C61.8778 17.9751 61.5357 18.071 61.1261 18.071C60.7757 18.071 60.4656 17.9941 60.1957 17.8402C59.9282 17.6839 59.7175 17.4531 59.5636 17.1477C59.4121 16.8423 59.3363 16.4647 59.3363 16.0149V12.5455H60.3981V15.8871C60.3981 16.2588 60.5011 16.5547 60.7071 16.7749C60.913 16.995 61.1806 17.1051 61.5096 17.1051C61.7085 17.1051 61.9062 17.0554 62.1027 16.956C62.3015 16.8565 62.4661 16.7062 62.5963 16.505C62.7289 16.3037 62.794 16.0481 62.7916 15.7379ZM65.2836 18V12.5455H66.3454V18H65.2836ZM65.8198 11.7038C65.6352 11.7038 65.4765 11.6423 65.344 11.5192C65.2138 11.3937 65.1487 11.2446 65.1487 11.0717C65.1487 10.8965 65.2138 10.7474 65.344 10.6243C65.4765 10.4988 65.6352 10.4361 65.8198 10.4361C66.0045 10.4361 66.1619 10.4988 66.2921 10.6243C66.4247 10.7474 66.491 10.8965 66.491 11.0717C66.491 11.2446 66.4247 11.3937 66.2921 11.5192C66.1619 11.6423 66.0045 11.7038 65.8198 11.7038ZM68.8356 10.7273V18H67.7738V10.7273H68.8356ZM72.8102 12.5455V13.3977H69.8308V12.5455H72.8102ZM70.6298 11.2386H71.6916V16.3984C71.6916 16.6044 71.7224 16.7595 71.784 16.8636C71.8455 16.9654 71.9248 17.0353 72.0219 17.0732C72.1213 17.1087 72.229 17.1264 72.345 17.1264C72.4303 17.1264 72.5048 17.1205 72.5688 17.1087C72.6327 17.0968 72.6824 17.0874 72.7179 17.0803L72.9097 17.9574C72.8481 17.9811 72.7605 18.0047 72.6469 18.0284C72.5332 18.0545 72.3912 18.0687 72.2207 18.071C71.9414 18.0758 71.681 18.026 71.4395 17.9219C71.198 17.8177 71.0027 17.6567 70.8536 17.4389C70.7044 17.2211 70.6298 16.9477 70.6298 16.6186V11.2386ZM78.9288 18.1101C78.4175 18.1101 77.9712 17.9929 77.5901 17.7585C77.2089 17.5241 76.913 17.1963 76.7023 16.7749C76.4916 16.3535 76.3862 15.861 76.3862 15.2976C76.3862 14.7318 76.4916 14.237 76.7023 13.8132C76.913 13.3894 77.2089 13.0604 77.5901 12.826C77.9712 12.5916 78.4175 12.4744 78.9288 12.4744C79.4402 12.4744 79.8865 12.5916 80.2676 12.826C80.6488 13.0604 80.9447 13.3894 81.1554 13.8132C81.3661 14.237 81.4715 14.7318 81.4715 15.2976C81.4715 15.861 81.3661 16.3535 81.1554 16.7749C80.9447 17.1963 80.6488 17.5241 80.2676 17.7585C79.8865 17.9929 79.4402 18.1101 78.9288 18.1101ZM78.9324 17.2188C79.2638 17.2188 79.5385 17.1312 79.7563 16.956C79.9741 16.7808 80.135 16.5476 80.2392 16.2564C80.3457 15.9652 80.399 15.6444 80.399 15.294C80.399 14.946 80.3457 14.6264 80.2392 14.3352C80.135 14.0417 79.9741 13.8061 79.7563 13.6286C79.5385 13.451 79.2638 13.3622 78.9324 13.3622C78.5986 13.3622 78.3216 13.451 78.1014 13.6286C77.8836 13.8061 77.7215 14.0417 77.6149 14.3352C77.5108 14.6264 77.4587 14.946 77.4587 15.294C77.4587 15.6444 77.5108 15.9652 77.6149 16.2564C77.7215 16.5476 77.8836 16.7808 78.1014 16.956C78.3216 17.1312 78.5986 17.2188 78.9324 17.2188ZM83.7184 14.7614V18H82.6566V12.5455H83.6758V13.4332H83.7433C83.8688 13.1444 84.0653 12.9124 84.3328 12.7372C84.6027 12.562 84.9424 12.4744 85.352 12.4744C85.7236 12.4744 86.0492 12.5526 86.3285 12.7088C86.6079 12.8627 86.8245 13.0923 86.9784 13.3977C87.1323 13.7031 87.2092 14.0807 87.2092 14.5305V18H86.1474V14.6584C86.1474 14.263 86.0444 13.9541 85.8385 13.7315C85.6325 13.5066 85.3496 13.3942 84.9897 13.3942C84.7435 13.3942 84.5245 13.4474 84.3328 13.554C84.1434 13.6605 83.9931 13.8168 83.8818 14.0227C83.7729 14.2263 83.7184 14.4725 83.7184 14.7614Z" fill="#181E2F"/>
<path d="M54.5808 35H52.6121L56.1966 24.8182H58.4736L62.0631 35H60.0943L57.3749 26.9062H57.2953L54.5808 35ZM54.6455 31.0078H60.0148V32.4893H54.6455V31.0078ZM68.7735 27.6172C68.7271 27.183 68.5315 26.8449 68.1868 26.603C67.8455 26.361 67.4013 26.2401 66.8544 26.2401C66.47 26.2401 66.1402 26.2981 65.8651 26.4141C65.59 26.5301 65.3795 26.6875 65.2337 26.8864C65.0879 27.0852 65.0133 27.3123 65.01 27.5675C65.01 27.7796 65.058 27.9635 65.1542 28.1193C65.2536 28.2751 65.3878 28.4077 65.5569 28.517C65.7259 28.6231 65.9132 28.7126 66.1187 28.7855C66.3241 28.8584 66.5313 28.9197 66.7401 28.9695L67.6946 29.2081C68.0791 29.2976 68.4487 29.4186 68.8033 29.571C69.1613 29.7235 69.4811 29.9157 69.7628 30.1477C70.0479 30.3797 70.2732 30.6598 70.439 30.9879C70.6047 31.3161 70.6875 31.7005 70.6875 32.1413C70.6875 32.7379 70.5351 33.2633 70.2302 33.7173C69.9252 34.1681 69.4844 34.5211 68.9077 34.7763C68.3343 35.0282 67.64 35.1541 66.8246 35.1541C66.0325 35.1541 65.3447 35.0315 64.7614 34.7862C64.1814 34.541 63.7273 34.183 63.3992 33.7124C63.0744 33.2417 62.8987 32.6683 62.8722 31.9922H64.6868C64.7133 32.3468 64.8227 32.6418 65.015 32.8771C65.2072 33.1125 65.4574 33.2881 65.7657 33.4041C66.0772 33.5201 66.4252 33.5781 66.8097 33.5781C67.2107 33.5781 67.5621 33.5185 67.8637 33.3991C68.1686 33.2765 68.4072 33.1075 68.5796 32.892C68.7519 32.6733 68.8398 32.4181 68.8431 32.1264C68.8398 31.8613 68.7619 31.6425 68.6094 31.4702C68.457 31.2945 68.2432 31.1487 67.9681 31.0327C67.6963 30.9134 67.3781 30.8073 67.0135 30.7145L65.8552 30.4162C65.0166 30.2008 64.3537 29.8743 63.8665 29.4368C63.3826 28.996 63.1407 28.411 63.1407 27.6818C63.1407 27.0819 63.3031 26.5566 63.6279 26.1058C63.956 25.6551 64.4018 25.3054 64.9652 25.0568C65.5287 24.8049 66.1667 24.679 66.8793 24.679C67.6018 24.679 68.2349 24.8049 68.7785 25.0568C69.3253 25.3054 69.7545 25.6518 70.0661 26.0959C70.3776 26.5367 70.5384 27.0438 70.5483 27.6172H68.7735ZM71.8845 26.3643V24.8182H80.008V26.3643H76.861V35H75.0315V26.3643H71.8845ZM81.6511 35H79.6824L83.2669 24.8182H85.5439L89.1334 35H87.1646L84.4452 26.9062H84.3656L81.6511 35ZM81.7158 31.0078H87.0851V32.4893H81.7158V31.0078ZM90.4745 35V24.8182H94.2927C95.0749 24.8182 95.7311 24.9541 96.2614 25.2259C96.795 25.4976 97.1977 25.8788 97.4695 26.3693C97.7446 26.8565 97.8821 27.425 97.8821 28.0746C97.8821 28.7275 97.7429 29.2943 97.4645 29.7749C97.1894 30.2521 96.7834 30.6217 96.2465 30.8835C95.7096 31.142 95.05 31.2713 94.2678 31.2713H91.5483V29.7401H94.0192C94.4766 29.7401 94.8511 29.6771 95.1428 29.5511C95.4345 29.4219 95.6499 29.2346 95.7891 28.9893C95.9316 28.7408 96.0029 28.4358 96.0029 28.0746C96.0029 27.7133 95.9316 27.4051 95.7891 27.1499C95.6466 26.8913 95.4295 26.6958 95.1378 26.5632C94.8462 26.4273 94.47 26.3594 94.0093 26.3594H92.3189V35H90.4745ZM95.7344 30.3864L98.255 35H96.1968L93.7209 30.3864H95.7344ZM100.609 35.1094C100.307 35.1094 100.049 35.0033 99.8335 34.7912C99.6181 34.5791 99.512 34.3205 99.5153 34.0156C99.512 33.7173 99.6181 33.4621 99.8335 33.25C100.049 33.0379 100.307 32.9318 100.609 32.9318C100.901 32.9318 101.154 33.0379 101.37 33.25C101.588 33.4621 101.7 33.7173 101.703 34.0156C101.7 34.2178 101.646 34.4018 101.544 34.5675C101.444 34.7332 101.312 34.8658 101.146 34.9652C100.984 35.0613 100.805 35.1094 100.609 35.1094ZM112.008 24.8182V35H110.367L105.569 28.0646H105.485V35H103.64V24.8182H105.291L110.084 31.7585H110.173V24.8182H112.008ZM114.017 35V24.8182H120.64V26.3643H115.862V29.1286H120.297V30.6747H115.862V33.4538H120.679V35H114.017ZM122.074 26.3643V24.8182H130.197V26.3643H127.05V35H125.221V26.3643H122.074ZM133.906 35L131.033 24.8182H133.016L134.851 32.3004H134.945L136.904 24.8182H138.709L140.673 32.3054H140.762L142.597 24.8182H144.58L141.707 35H139.887L137.849 27.8558H137.769L135.726 35H133.906ZM154.41 29.9091C154.41 31.0062 154.205 31.9458 153.794 32.728C153.386 33.5069 152.829 34.1035 152.123 34.5178C151.421 34.9321 150.624 35.1392 149.732 35.1392C148.841 35.1392 148.042 34.9321 147.336 34.5178C146.633 34.1001 146.076 33.5019 145.665 32.723C145.258 31.9408 145.054 31.0028 145.054 29.9091C145.054 28.812 145.258 27.8741 145.665 27.0952C146.076 26.313 146.633 25.7147 147.336 25.3004C148.042 24.8861 148.841 24.679 149.732 24.679C150.624 24.679 151.421 24.8861 152.123 25.3004C152.829 25.7147 153.386 26.313 153.794 27.0952C154.205 27.8741 154.41 28.812 154.41 29.9091ZM152.556 29.9091C152.556 29.1368 152.435 28.4856 152.193 27.9553C151.954 27.4216 151.623 27.0189 151.199 26.7472C150.774 26.4721 150.286 26.3345 149.732 26.3345C149.179 26.3345 148.69 26.4721 148.265 26.7472C147.841 27.0189 147.508 27.4216 147.266 27.9553C147.028 28.4856 146.908 29.1368 146.908 29.9091C146.908 30.6813 147.028 31.3343 147.266 31.8679C147.508 32.3982 147.841 32.8009 148.265 33.076C148.69 33.3478 149.179 33.4837 149.732 33.4837C150.286 33.4837 150.774 33.3478 151.199 33.076C151.623 32.8009 151.954 32.3982 152.193 31.8679C152.435 31.3343 152.556 30.6813 152.556 29.9091ZM156.154 35V24.8182H159.972C160.755 24.8182 161.411 24.9541 161.941 25.2259C162.475 25.4976 162.877 25.8788 163.149 26.3693C163.424 26.8565 163.562 27.425 163.562 28.0746C163.562 28.7275 163.423 29.2943 163.144 29.7749C162.869 30.2521 162.463 30.6217 161.926 30.8835C161.389 31.142 160.73 31.2713 159.947 31.2713H157.228V29.7401H159.699C160.156 29.7401 160.531 29.6771 160.822 29.5511C161.114 29.4219 161.33 29.2346 161.469 28.9893C161.611 28.7408 161.683 28.4358 161.683 28.0746C161.683 27.7133 161.611 27.4051 161.469 27.1499C161.326 26.8913 161.109 26.6958 160.818 26.5632C160.526 26.4273 160.15 26.3594 159.689 26.3594H157.999V35H156.154ZM161.414 30.3864L163.935 35H161.876L159.401 30.3864H161.414ZM165.26 35V24.8182H167.104V29.4964H167.228L171.201 24.8182H173.453L169.515 29.3871L173.488 35H171.27L168.233 30.6349L167.104 31.9673V35H165.26Z" fill="#181E2F"/>
<defs>
<linearGradient id="paint0_linear_13156_2262" x1="17.0812" y1="34.9194" x2="37.4805" y2="14.5174" gradientUnits="userSpaceOnUse">
<stop stop-color="#E6007A"/>
<stop offset="0.21" stop-color="#703AC2"/>
<stop offset="0.46" stop-color="#0070EB"/>
<stop offset="0.77" stop-color="#0297FB"/>
<stop offset="1" stop-color="#0AE2FF"/>
</linearGradient>
<radialGradient id="paint1_radial_13156_2262" cx="0" cy="0" r="1" gradientUnits="userSpaceOnUse" gradientTransform="translate(32.56 20.7599) scale(6.08421)">
<stop stop-color="white"/>
<stop offset="1" stop-color="white" stop-opacity="0"/>
</radialGradient>
<radialGradient id="paint2_radial_13156_2262" cx="0" cy="0" r="1" gradientUnits="userSpaceOnUse" gradientTransform="translate(23.568 32.0467) scale(3.54044 3.54044)">
<stop stop-color="white"/>
<stop offset="1" stop-color="white" stop-opacity="0"/>
</radialGradient>
<linearGradient id="paint3_linear_13156_2262" x1="18.2556" y1="31.4473" x2="21.6678" y2="31.4003" gradientUnits="userSpaceOnUse">
<stop stop-color="white" stop-opacity="0"/>
<stop offset="1" stop-color="white"/>
</linearGradient>
<radialGradient id="paint4_radial_13156_2262" cx="0" cy="0" r="1" gradientUnits="userSpaceOnUse" gradientTransform="translate(22.9137 21.6681) rotate(-120) scale(6.08421)">
<stop stop-color="white"/>
<stop offset="1" stop-color="white" stop-opacity="0"/>
</radialGradient>
<radialGradient id="paint5_radial_13156_2262" cx="0" cy="0" r="1" gradientUnits="userSpaceOnUse" gradientTransform="translate(37.1854 23.8126) rotate(-120) scale(3.54044)">
<stop stop-color="white"/>
<stop offset="1" stop-color="white" stop-opacity="0"/>
</radialGradient>
<linearGradient id="paint6_linear_13156_2262" x1="39.3211" y1="28.7106" x2="37.5745" y2="25.7794" gradientUnits="userSpaceOnUse">
<stop stop-color="white" stop-opacity="0"/>
<stop offset="1" stop-color="white"/>
</linearGradient>
<radialGradient id="paint7_radial_13156_2262" cx="0" cy="0" r="1" gradientUnits="userSpaceOnUse" gradientTransform="translate(28.2347 29.2863) rotate(120) scale(6.08421)">
<stop stop-color="white"/>
<stop offset="1" stop-color="white" stop-opacity="0"/>
</radialGradient>
<radialGradient id="paint8_radial_13156_2262" cx="0" cy="0" r="1" gradientUnits="userSpaceOnUse" gradientTransform="translate(23.2438 16.1392) rotate(120) scale(3.54044)">
<stop stop-color="white"/>
<stop offset="1" stop-color="white" stop-opacity="0"/>
</radialGradient>
<linearGradient id="paint9_linear_13156_2262" x1="26.4173" y1="11.8368" x2="24.7539" y2="14.8166" gradientUnits="userSpaceOnUse">
<stop stop-color="white" stop-opacity="0"/>
<stop offset="1" stop-color="white"/>
</linearGradient>
<linearGradient id="paint10_linear_13156_2262" x1="27.1603" y1="10.3222" x2="21.9465" y2="11.839" gradientUnits="userSpaceOnUse">
<stop stop-color="#231F20"/>
<stop offset="1" stop-color="white"/>
</linearGradient>
<linearGradient id="paint11_linear_13156_2262" x1="17.3109" y1="30.2014" x2="21.6703" y2="34.7518" gradientUnits="userSpaceOnUse">
<stop stop-color="#231F20"/>
<stop offset="1" stop-color="white"/>
</linearGradient>
<linearGradient id="paint12_linear_13156_2262" x1="40.7063" y1="29.5165" x2="42.2231" y2="24.9054" gradientUnits="userSpaceOnUse">
<stop stop-color="#231F20"/>
<stop offset="1" stop-color="white"/>
</linearGradient>
<linearGradient id="paint13_linear_13156_2262" x1="29.5343" y1="12.9616" x2="36.5225" y2="14.5611" gradientUnits="userSpaceOnUse">
<stop stop-color="#231F20"/>
<stop offset="1" stop-color="white"/>
</linearGradient>
<linearGradient id="paint14_linear_13156_2262" x1="36.7926" y1="30.8484" x2="31.91" y2="36.1016" gradientUnits="userSpaceOnUse">
<stop stop-color="#231F20"/>
<stop offset="1" stop-color="white"/>
</linearGradient>
<linearGradient id="paint15_linear_13156_2262" x1="17.6709" y1="28.193" x2="15.5643" y2="21.3403" gradientUnits="userSpaceOnUse">
<stop stop-color="#231F20"/>
<stop offset="1" stop-color="white"/>
</linearGradient>
<linearGradient id="paint16_linear_13156_2262" x1="31.0619" y1="15.5381" x2="28.8523" y2="17.7509" gradientUnits="userSpaceOnUse">
<stop stop-color="#231F20"/>
<stop offset="1" stop-color="white"/>
</linearGradient>
<linearGradient id="paint17_linear_13156_2262" x1="19.1407" y1="25.5742" x2="22.1604" y2="26.3854" gradientUnits="userSpaceOnUse">
<stop stop-color="#231F20"/>
<stop offset="1" stop-color="white"/>
</linearGradient>
<linearGradient id="paint18_linear_13156_2262" x1="33.7925" y1="30.8818" x2="32.9834" y2="27.8632" gradientUnits="userSpaceOnUse">
<stop stop-color="#231F20"/>
<stop offset="1" stop-color="white"/>
</linearGradient>
<linearGradient id="paint19_linear_13156_2262" x1="29.1956" y1="28.1965" x2="30.5236" y2="26.3651" gradientUnits="userSpaceOnUse">
<stop stop-color="#231F20"/>
<stop offset="1" stop-color="white"/>
</linearGradient>
<linearGradient id="paint20_linear_13156_2262" x1="24.6282" y1="27.4031" x2="21.9749" y2="28.6681" gradientUnits="userSpaceOnUse">
<stop stop-color="#231F20"/>
<stop offset="1" stop-color="white"/>
</linearGradient>
<linearGradient id="paint21_linear_13156_2262" x1="23.6641" y1="22.9861" x2="24.4854" y2="24.6922" gradientUnits="userSpaceOnUse">
<stop stop-color="#231F20"/>
<stop offset="1" stop-color="white"/>
</linearGradient>
<linearGradient id="paint22_linear_13156_2262" x1="27.4839" y1="17.7178" x2="26.917" y2="15.76" gradientUnits="userSpaceOnUse">
<stop stop-color="#231F20"/>
<stop offset="1" stop-color="white"/>
</linearGradient>
<linearGradient id="paint23_linear_13156_2262" x1="33.6122" y1="26.6852" x2="35.2548" y2="27.0633" gradientUnits="userSpaceOnUse">
<stop stop-color="#231F20"/>
<stop offset="1" stop-color="white"/>
</linearGradient>
<linearGradient id="paint24_linear_13156_2262" x1="31.0352" y1="21.1353" x2="28.9515" y2="20.7572" gradientUnits="userSpaceOnUse">
<stop stop-color="#231F20"/>
<stop offset="1" stop-color="white"/>
</linearGradient>
</defs>
</svg>
