<svg width="128" height="48" viewBox="0 0 128 48" fill="none" xmlns="http://www.w3.org/2000/svg">
<rect x="0.5" y="0.5" width="126.486" height="47" rx="7.5" fill="white"/>
<rect x="0.5" y="0.5" width="126.486" height="47" rx="7.5" stroke="#DCDEE5"/>
<path d="M43.9588 22.9154C43.3599 14.0984 35.728 7.43924 26.9136 8.03817C22.5227 8.33736 18.6668 10.3827 15.9756 13.4467L15.9676 13.4413C15.9484 13.4659 15.9318 13.4904 15.9153 13.5149C13.2428 16.5981 11.7388 20.6946 12.0375 25.0866C12.0652 25.5058 12.1143 25.9164 12.1745 26.3239C12.1745 26.3436 12.1799 26.3596 12.1825 26.3788C12.2236 26.6471 12.2705 26.9159 12.3223 27.1788C12.3713 27.4218 12.4261 27.6637 12.4865 27.9041C14.3351 35.2726 21.2379 40.4912 29.0853 39.9574C37.8997 39.3579 44.5615 31.7265 43.962 22.91L43.9588 22.9154ZM40.4762 23.1532C40.5503 24.238 40.4815 25.3004 40.2874 26.3244C40.2874 26.3191 40.282 26.3137 40.282 26.3079C39.1205 23.4738 36.8261 21.4258 34.8106 20.2946C35.2186 15.492 33.5893 13.4659 31.744 13.1373C31.3864 13.0701 31.0189 13.0768 30.664 13.1568C30.3091 13.2368 29.9743 13.3886 29.6802 13.6027C29.386 13.8168 29.1388 14.0888 28.9536 14.402C28.7684 14.7151 28.6491 15.0628 28.6032 15.4237C28.5583 15.7719 28.5824 16.1255 28.6743 16.4642C28.7662 16.803 28.924 17.1204 29.1387 17.3981C29.3534 17.6758 29.6208 17.9084 29.9255 18.0827C30.2303 18.257 30.5664 18.3694 30.9147 18.4135C31.0432 18.4301 31.1691 18.4354 31.2923 18.4327C31.3012 18.6042 31.3059 18.7758 31.3061 18.9474C29.6 18.5261 28.0064 18.4407 26.5526 18.5725C26.0059 18.6083 25.4617 18.6769 24.9232 18.7778C25.1046 17.1565 25.7147 15.333 26.895 14.0024C28.0363 12.7128 29.7344 11.9763 31.5851 12.1651C31.936 12.2008 32.3109 12.2883 32.6474 12.4008C32.664 12.4061 32.6805 12.4115 32.6944 12.4141C36.9823 14.1613 40.1396 18.2327 40.4735 23.1532H40.4762ZM29.3237 25.5959C29.3237 25.5959 29.3237 25.5986 29.3211 25.6012C28.9165 26.1825 28.4581 26.7245 27.952 27.2199C27.1854 26.4101 26.5364 25.4966 26.024 24.5063C25.9995 24.454 25.9723 24.4076 25.9472 24.3554V24.35C25.647 23.7082 25.4068 23.0399 25.2299 22.3538C26.3659 22.0855 27.4806 21.9869 28.5461 22.0391L28.7157 22.0471H28.7211C29.3893 22.102 30.0848 22.2252 30.8048 22.4226C30.4706 23.5464 29.9724 24.6148 29.3264 25.5932L29.3237 25.5959ZM23.8582 12.1981L23.8502 12.2088C21.9745 14.6296 21.3499 17.6386 21.3777 19.9495C17.0129 21.9975 16.0764 24.421 16.7116 26.1841C16.7276 26.2337 16.7473 26.2801 16.7665 26.3271C17.0402 26.9808 17.5622 27.4991 18.2178 27.7681C18.8734 28.0371 19.6091 28.0349 20.263 27.7617C20.9167 27.4881 21.435 26.9661 21.704 26.3104C21.9731 25.6548 21.9707 24.9191 21.6977 24.2652C21.648 24.1491 21.5904 24.0365 21.5254 23.9282C21.6625 23.8375 21.8102 23.7479 21.9691 23.6546C22.4561 25.3442 23.1766 26.7708 24.0171 27.9644C24.3211 28.4161 24.6496 28.8513 25.008 29.2705C23.5131 29.9249 21.6294 30.3084 19.8849 29.9521C18.1985 29.6076 16.7116 28.5068 15.9478 26.8087C15.8015 26.4757 15.6914 26.1279 15.6193 25.7714C15.5743 25.4651 15.5405 25.1574 15.518 24.8487C15.1287 19.1175 18.6833 14.0163 23.8582 12.1981ZM28.8469 36.4774C25.4438 36.7099 22.2619 35.5494 19.8577 33.4843C22.8918 33.8982 25.8107 32.934 27.799 31.7542C31.7552 34.5115 34.3237 34.1115 35.5338 32.6796C35.7709 32.4032 35.949 32.0813 36.0572 31.7335C36.1653 31.3859 36.2013 31.0197 36.1628 30.6576C36.1244 30.2955 36.0123 29.9451 35.8336 29.6279C35.6547 29.3107 35.413 29.0333 35.1232 28.8129C34.844 28.6001 34.5256 28.4443 34.1862 28.3546C33.8467 28.2649 33.493 28.2429 33.1451 28.29C32.7972 28.337 32.462 28.4522 32.1586 28.6289C31.8552 28.8055 31.5896 29.0402 31.3771 29.3196C31.3008 29.4209 31.232 29.5308 31.1717 29.6401C31.0267 29.566 30.8731 29.4839 30.7173 29.3937C31.8321 28.2436 32.7456 26.9144 33.4197 25.4615C33.661 24.9697 33.8731 24.4641 34.0549 23.9474C35.3696 24.917 36.6453 26.3543 37.2095 28.0433C37.7546 29.6753 37.5461 31.5153 36.4565 33.0246C36.2412 33.3175 35.9952 33.5864 35.7226 33.8267L35.712 33.8374C33.743 35.3883 31.351 36.3076 28.8501 36.4747L28.8469 36.4774Z" fill="url(#paint0_linear_13297_2423)"/>
<path style="mix-blend-mode:overlay" opacity="0.9" d="M31.7441 13.1345C31.4439 13.0775 31.1361 13.0739 30.8347 13.1238C32.3659 13.9558 33.48 16.2752 32.8944 20.8533C32.7005 22.3422 32.263 23.7891 31.5995 25.1359C31.0277 26.3651 30.2835 27.5063 29.3894 28.5252C29.8132 28.8441 30.2568 29.1359 30.7174 29.3988C31.8323 28.249 32.746 26.9199 33.4203 25.4671C34.0854 24.1209 34.523 22.6738 34.7152 21.1845C35.4139 15.7355 33.6998 13.4848 31.7446 13.1366L31.7441 13.1345Z" fill="url(#paint1_radial_13297_2423)"/>
<g style="mix-blend-mode:overlay" opacity="0.8">
<path d="M32.8936 20.8507C33.4798 16.2747 32.3651 13.9531 30.8344 13.1206C30.7742 13.1286 30.7171 13.1425 30.6563 13.1563C32.1544 14.0187 33.2328 16.335 32.6552 20.8507C32.4614 22.3396 32.0239 23.7864 31.3603 25.1333C30.8092 26.3189 30.0969 27.4227 29.2435 28.4133C29.2926 28.4517 29.3395 28.4874 29.3886 28.5226C30.2819 27.503 31.0259 26.3616 31.5982 25.1328C32.2635 23.7865 32.7013 22.3399 32.8936 20.8507Z" fill="white"/>
</g>
<path style="mix-blend-mode:overlay" opacity="0.5" d="M27.0752 31.2306C26.9301 31.1213 26.793 31.0061 26.6538 30.8909C24.3947 31.8333 21.2645 32.4242 18.1542 31.7015C18.6607 32.3503 19.2302 32.9474 19.8544 33.4839C22.8885 33.8978 25.8074 32.9335 27.7957 31.7538C27.5513 31.5831 27.3102 31.4078 27.0725 31.2279L27.0752 31.2306Z" fill="url(#paint2_radial_13297_2423)"/>
<path style="mix-blend-mode:overlay" opacity="0.6" d="M26.656 30.891C26.5877 30.8334 26.5168 30.7763 26.4512 30.7188C24.1755 31.6275 21.0294 32.1726 17.927 31.3977C18.0038 31.499 18.0806 31.603 18.1569 31.7017C21.2651 32.4243 24.3968 31.8334 26.656 30.891Z" fill="url(#paint3_linear_13297_2423)"/>
<path style="mix-blend-mode:overlay" opacity="0.9" d="M16.7137 26.1869C16.7297 26.2359 16.7495 26.2829 16.7687 26.3293C16.87 26.5703 17.0012 26.7863 17.1601 26.981C17.1164 25.2397 18.5676 23.1117 22.8225 21.332C24.2087 20.7554 25.6806 20.4112 27.1787 20.3133C28.5295 20.1929 29.8905 20.2667 31.2203 20.5325C31.2891 19.9576 31.3163 19.421 31.311 18.9469C29.7578 18.5559 28.1499 18.4292 26.5547 18.572C25.0564 18.6701 23.5845 19.0143 22.198 19.5906C17.1303 21.7101 16.0375 24.3197 16.7143 26.1895L16.7137 26.1869Z" fill="url(#paint4_radial_13297_2423)"/>
<g style="mix-blend-mode:overlay" opacity="0.8">
<path d="M22.8227 21.3349C18.5678 23.1152 17.116 25.2426 17.1603 26.984C17.1987 27.0304 17.2397 27.0746 17.2808 27.1184C17.2776 25.3904 18.7454 23.2987 22.9432 21.5403C24.3294 20.9637 25.8012 20.6195 27.2994 20.5216C28.6017 20.4064 29.9138 20.471 31.1986 20.7136C31.2072 20.6535 31.2145 20.5932 31.2204 20.5328C29.8904 20.2685 28.5296 20.1949 27.1789 20.3142C25.6807 20.4123 24.209 20.7565 22.8227 21.3328V21.3349Z" fill="white"/>
</g>
<path style="mix-blend-mode:overlay" opacity="0.4" d="M34.7206 21.1816C34.6992 21.3624 34.6688 21.5374 34.6384 21.7155C36.5824 23.1998 38.6608 25.6173 39.592 28.6701C39.8997 27.9062 40.1318 27.114 40.2848 26.3048C39.1264 23.4707 36.832 21.4248 34.8166 20.2942C34.792 20.5822 34.7616 20.875 34.7232 21.1816H34.7206Z" fill="url(#paint5_radial_13297_2423)"/>
<path style="mix-blend-mode:overlay" opacity="0.5" d="M34.6385 21.7156C34.622 21.803 34.6081 21.8937 34.5916 21.9812C36.5169 23.498 38.5622 25.9491 39.4411 29.0238C39.4928 28.9064 39.5424 28.788 39.5888 28.6707C38.6582 25.6174 36.5825 23.2025 34.6353 21.7156H34.6385Z" fill="url(#paint6_linear_13297_2423)"/>
<path style="mix-blend-mode:overlay" opacity="0.9" d="M35.5335 32.6767C35.7314 32.4436 35.8888 32.1789 35.9991 31.8938C34.5122 32.8025 31.9458 32.6084 28.2744 29.8122C27.0809 28.9005 26.0465 27.7976 25.2131 26.5482C24.4333 25.439 23.8164 24.2238 23.3811 22.9397C22.8499 23.1669 22.371 23.4133 21.9603 23.6544C22.3993 25.1948 23.0933 26.6507 24.0136 27.9615C24.835 29.1882 25.859 30.2975 27.0749 31.2255C31.445 34.5551 34.252 34.1961 35.5303 32.6761L35.5335 32.6767Z" fill="url(#paint7_radial_13297_2423)"/>
<g style="mix-blend-mode:overlay" opacity="0.8">
<path d="M28.2769 29.8126C31.9456 32.6078 34.5141 32.8025 36.0005 31.8931C36.0224 31.8361 36.0416 31.7785 36.0581 31.7235C34.5632 32.5918 32.0166 32.3641 28.3969 29.6073C27.2034 28.6956 26.169 27.5927 25.3355 26.3433C24.5846 25.2735 23.9848 24.1051 23.5532 22.8713C23.4956 22.8959 23.4412 22.9177 23.3862 22.9423C23.8213 24.2265 24.4381 25.4419 25.2177 26.5513C26.039 27.778 27.063 28.8873 28.279 29.8153L28.2769 29.8126Z" fill="white"/>
</g>
<path style="mix-blend-mode:overlay" opacity="0.3" d="M22.1955 19.5854C22.3624 19.5166 22.5294 19.4537 22.699 19.3908C23.0115 16.9647 24.0654 13.9556 26.2456 11.6255C25.4296 11.7428 24.627 11.9348 23.8494 12.2058C21.9731 14.6265 21.3491 17.6356 21.3769 19.947C21.6366 19.8244 21.9081 19.7033 22.1928 19.586L22.1955 19.5854Z" fill="url(#paint8_radial_13297_2423)"/>
<path style="mix-blend-mode:overlay" opacity="0.4" d="M22.699 19.3908C22.7843 19.3609 22.8664 19.3279 22.9512 19.298C23.3016 16.8713 24.4024 13.8762 26.6232 11.5759C26.4973 11.5898 26.3709 11.6063 26.2451 11.6229C24.0654 13.9556 23.0115 16.962 22.6995 19.3881V19.3908H22.699Z" fill="url(#paint9_linear_13297_2423)"/>
<path style="mix-blend-mode:multiply" opacity="0.4" d="M26.9135 8.03847C22.5215 8.33714 18.6666 10.3825 15.9749 13.4464L15.9147 13.5147C16.4373 14.0352 18.1514 15.0592 18.8442 15.4864C20.2247 13.9991 21.9467 12.8704 23.8612 12.1979C23.9956 12.0224 24.1375 11.8502 24.2858 11.6832C26.0927 9.64326 28.5599 8.567 31.4238 8.567C31.7417 8.567 32.3908 8.61927 32.4041 8.61927C30.622 8.10662 28.764 7.90987 26.914 8.03794L26.9135 8.03847Z" fill="url(#paint10_linear_13297_2423)"/>
<path style="mix-blend-mode:multiply" opacity="0.4" d="M28.8468 36.4798C25.4437 36.7123 22.2618 35.5518 19.8576 33.4873C19.6318 33.4578 19.4071 33.4202 19.184 33.3747C16.5141 32.8297 14.3456 31.2307 12.9163 28.7529C12.7589 28.4791 12.6155 28.1975 12.4865 27.9092C14.335 35.2776 21.2378 40.4968 29.0826 39.9624C29.1183 39.1549 28.8799 37.2798 28.8442 36.4798H28.8468Z" fill="url(#paint11_linear_13297_2423)"/>
<path style="mix-blend-mode:multiply" opacity="0.4" d="M43.9592 22.9151C43.4664 22.8655 41.0674 23.0549 40.4765 23.153C40.5501 24.2378 40.4818 25.3002 40.2872 26.3242C40.3693 26.5268 40.4488 26.7348 40.5197 26.9455C41.3826 29.5305 41.0813 32.2057 39.652 34.6862C39.4938 34.9595 39.322 35.2247 39.1373 35.4809C39.1373 35.4809 39.1453 35.475 39.148 35.4697C42.3986 32.307 44.2904 27.7945 43.9592 22.9178V22.9151Z" fill="url(#paint12_linear_13297_2423)"/>
<path style="mix-blend-mode:multiply" opacity="0.5" d="M31.5881 12.1621C31.9385 12.1978 32.3134 12.2853 32.6505 12.3978C32.6665 12.4031 32.6836 12.4085 32.6969 12.4111C34.0704 12.9717 35.334 13.7709 36.4291 14.7717C36.4291 14.7717 36.4345 14.7743 36.4371 14.777C36.963 14.1775 37.9731 13.5178 37.9731 13.5178C37.9731 13.5178 36.4265 11.9349 34.058 11.4421C32.4014 11.097 28.6639 10.7658 26.306 14.777L26.3279 14.7557C26.5034 14.4922 26.6868 14.2351 26.8975 13.9994C28.0393 12.7098 29.7369 11.9727 31.5881 12.1621Z" fill="url(#paint13_linear_13297_2423)"/>
<path style="mix-blend-mode:multiply" opacity="0.5" d="M36.4566 33.027C36.2414 33.3198 35.9954 33.5888 35.7228 33.8292C35.7121 33.8398 35.6982 33.851 35.687 33.8622C34.5147 34.7708 33.1911 35.4649 31.7772 35.9129C31.7745 35.9129 31.7719 35.9129 31.7687 35.9155C32.0263 36.6713 32.0919 37.8761 32.0919 37.8761C32.0919 37.8761 34.2359 37.3289 35.8465 35.5241C36.9718 34.2617 39.1291 31.1897 36.8342 27.1428C36.8342 27.1428 36.8374 27.1562 36.8428 27.1727C36.9852 27.4554 37.1137 27.7449 37.2124 28.0436C37.7574 29.6756 37.5489 31.5156 36.4593 33.0244L36.4566 33.027Z" fill="url(#paint14_linear_13297_2423)"/>
<path style="mix-blend-mode:multiply" opacity="0.5" d="M15.9536 26.8143C15.8071 26.4812 15.6968 26.1332 15.6246 25.7765C15.6219 25.7605 15.6166 25.7434 15.6139 25.7269C15.4112 24.2512 15.4768 22.7562 15.792 21.3163V21.3077C15.0086 21.1541 13.9328 20.6069 13.9328 20.6069C13.9328 20.6069 13.3355 22.7402 14.0944 25.0346C14.6256 26.6415 16.2054 30.0452 20.857 30.081C20.857 30.081 20.8437 30.0778 20.8272 30.0725C20.5125 30.0533 20.1979 30.0207 19.8885 29.9578C18.2016 29.6127 16.7147 28.5119 15.9504 26.8143H15.9536Z" fill="url(#paint15_linear_13297_2423)"/>
<path style="mix-blend-mode:multiply" opacity="0.6" d="M30.9141 18.4113C31.0427 18.4273 31.1685 18.4326 31.2917 18.43C31.2917 18.43 31.2069 16.7681 31.0043 15.9137C30.7989 15.062 30.4976 14.4951 30.1691 14.1751C29.9312 13.9452 29.1835 13.6599 28.6032 15.4177C28.5582 15.7659 28.5823 16.1195 28.6741 16.4583C28.7659 16.7971 28.9237 17.1145 29.1384 17.3923C29.353 17.6701 29.6203 17.9028 29.9251 18.0771C30.2298 18.2514 30.5659 18.3639 30.9141 18.4081V18.4108V18.4113Z" fill="url(#paint16_linear_13297_2423)"/>
<path style="mix-blend-mode:multiply" opacity="0.5" d="M21.7011 24.2704C21.6512 24.1544 21.5934 24.0419 21.5283 23.9338C21.5283 23.9338 20.1289 24.8373 19.4937 25.4394C18.8585 26.0421 18.5187 26.5871 18.4067 27.033C18.3273 27.3535 18.4531 28.1423 20.2659 27.7669C20.9196 27.4932 21.4379 26.9712 21.7069 26.3156C21.9759 25.66 21.9736 24.9243 21.7006 24.2704H21.7011Z" fill="url(#paint17_linear_13297_2423)"/>
<path style="mix-blend-mode:multiply" opacity="0.6" d="M31.3803 29.3166C31.3035 29.418 31.2352 29.5278 31.1749 29.6366C31.1749 29.6366 32.6565 30.3955 33.497 30.6446C34.3376 30.8942 34.9781 30.9161 35.4192 30.7897C35.737 30.6995 36.3557 30.1929 35.1258 28.8132C34.8467 28.6004 34.5283 28.4447 34.189 28.355C33.8496 28.2654 33.4959 28.2434 33.1481 28.2905C32.8002 28.3375 32.4651 28.4526 32.1618 28.6293C31.8584 28.8059 31.5929 29.0405 31.3803 29.3198V29.3166Z" fill="url(#paint18_linear_13297_2423)"/>
<path style="mix-blend-mode:multiply" opacity="0.3" d="M30.8052 22.425C30.4692 23.5424 29.9977 24.5584 29.4201 25.4533C29.3897 25.4997 29.3599 25.5466 29.3268 25.5957C29.3268 25.5957 29.3268 25.5984 29.3241 25.601C28.9196 26.1823 28.4613 26.7243 27.9551 27.2197C28.322 27.6085 28.7161 27.9861 29.1519 28.345C29.6467 28.7342 30.1701 29.0856 30.7177 29.3962C31.8326 28.2463 32.7463 26.9172 33.4206 25.4645C33.6619 24.9725 33.8737 24.4668 34.0553 23.9498C33.4916 23.5365 32.922 23.2053 32.3966 22.9808C31.8788 22.7589 31.3461 22.5732 30.8025 22.425H30.8057H30.8052Z" fill="url(#paint19_linear_13297_2423)"/>
<path style="mix-blend-mode:multiply" opacity="0.3" d="M19.8582 33.4872C22.8917 33.9005 25.8106 32.9368 27.7988 31.7566C27.5545 31.5858 27.3134 31.4105 27.0757 31.2307C26.3195 30.6523 25.626 29.9962 25.0063 29.2734C23.5109 29.9272 21.6272 30.3107 19.8826 29.9544C18.1963 29.6099 16.7094 28.5091 15.9451 26.8115C15.7988 26.4783 15.6886 26.1304 15.6166 25.7737C16.0576 28.8675 17.6181 31.5672 19.8554 33.4867L19.8582 33.4872Z" fill="url(#paint20_linear_13297_2423)"/>
<path style="mix-blend-mode:multiply" opacity="0.3" d="M27.9547 27.2191C27.1883 26.4094 26.5395 25.4962 26.0272 24.506C26.0027 24.4538 25.975 24.4074 25.9504 24.3551V24.3498C25.6502 23.708 25.41 23.0396 25.2331 22.3535C24.7126 22.4767 24.1899 22.6303 23.6641 22.8276C23.0803 23.0609 22.5146 23.3372 21.9718 23.6543C22.4593 25.3439 23.1793 26.7705 24.0198 27.9641C24.3238 28.4159 24.6528 28.8511 25.0118 29.2703C25.6518 28.9908 26.2246 28.6596 26.6811 28.3172C27.1308 27.9794 27.5572 27.6117 27.9573 27.2164L27.9547 27.2191Z" fill="url(#paint21_linear_13297_2423)"/>
<path style="mix-blend-mode:multiply" opacity="0.3" d="M23.8503 12.2085C21.9746 14.6293 21.3501 17.6383 21.3778 19.9493C21.6481 19.8223 21.9211 19.701 22.1965 19.5855C23.0742 19.2189 23.9883 18.9463 24.9234 18.7722C25.1047 17.1509 25.7149 15.3274 26.8951 13.9968C28.0364 12.7072 29.7346 11.9701 31.5857 12.1595C31.9361 12.1952 32.3111 12.2827 32.6481 12.3952C32.6641 12.4005 32.6807 12.4059 32.6945 12.4085C30.9375 11.6916 29.0394 11.3872 27.1463 11.5189C25.9965 11.5984 24.8957 11.8309 23.8551 12.1979C23.8525 12.2005 23.8498 12.2059 23.8471 12.2085H23.8503Z" fill="url(#paint22_linear_13297_2423)"/>
<path style="mix-blend-mode:multiply" opacity="0.3" d="M40.2847 26.3023C39.1242 23.4682 36.8293 21.4197 34.8138 20.2891C34.7893 20.5771 34.7594 20.8725 34.7178 21.1819C34.5956 22.1251 34.3745 23.0529 34.0581 23.9498C35.3728 24.9194 36.6485 26.3567 37.2127 28.0463C37.7573 29.6783 37.5493 31.5183 36.4597 33.0271C36.2444 33.3199 35.9984 33.5888 35.7258 33.8292L35.7152 33.8399C38.0645 31.9946 39.7258 29.3333 40.2959 26.3215C40.2959 26.3162 40.2906 26.3103 40.2906 26.305L40.2847 26.3023Z" fill="url(#paint23_linear_13297_2423)"/>
<path style="mix-blend-mode:multiply" opacity="0.3" d="M24.9153 20.6995C24.9823 21.2574 25.0875 21.81 25.23 22.3534C26.3665 22.0851 27.4806 21.9865 28.5462 22.0387L28.7158 22.0467H28.7212C29.3894 22.1017 30.0849 22.2249 30.8054 22.4222C30.9585 21.9102 31.0875 21.3785 31.1803 20.8254C31.2817 20.1358 31.3115 19.4974 31.3089 18.9417C29.6033 18.5204 28.0097 18.435 26.5558 18.5668C26.0091 18.6026 25.465 18.6712 24.9265 18.7721C24.8497 19.4676 24.8465 20.1273 24.918 20.6974L24.9153 20.6995Z" fill="url(#paint24_linear_13297_2423)"/>
<path d="M52.8786 18.6355V11.3628H55.5419C56.058 11.3628 56.4854 11.448 56.8239 11.6185C57.1624 11.7865 57.4158 12.015 57.5839 12.3038C57.7519 12.5903 57.836 12.9134 57.836 13.2733C57.836 13.5763 57.7803 13.832 57.6691 14.0403C57.5578 14.2463 57.4087 14.412 57.2216 14.5375C57.037 14.6606 56.8334 14.7506 56.6108 14.8074V14.8784C56.8523 14.8902 57.0879 14.9684 57.3175 15.1128C57.5495 15.2548 57.7413 15.4572 57.8928 15.72C58.0443 15.9828 58.1201 16.3024 58.1201 16.6788C58.1201 17.0505 58.0325 17.3843 57.8573 17.6802C57.6845 17.9738 57.4169 18.207 57.0547 18.3798C56.6925 18.5503 56.2297 18.6355 55.6662 18.6355H52.8786ZM53.9759 17.6944H55.5597C56.0853 17.6944 56.4617 17.5926 56.689 17.389C56.9162 17.1855 57.0299 16.931 57.0299 16.6256C57.0299 16.3959 56.9719 16.1852 56.8559 15.9935C56.7399 15.8017 56.5741 15.649 56.3587 15.5354C56.1456 15.4217 55.8923 15.3649 55.5988 15.3649H53.9759V17.6944ZM53.9759 14.5091H55.4461C55.6923 14.5091 55.9136 14.4617 56.1101 14.367C56.309 14.2723 56.4664 14.1398 56.5824 13.9693C56.7008 13.7965 56.76 13.5929 56.76 13.3585C56.76 13.0578 56.6546 12.8057 56.4439 12.6021C56.2332 12.3985 55.9101 12.2967 55.4745 12.2967H53.9759V14.5091ZM62.7916 16.3734V13.181H63.8569V18.6355H62.8129V17.6909H62.7561C62.6306 17.9821 62.4294 18.2247 62.1524 18.4189C61.8778 18.6106 61.5357 18.7065 61.1261 18.7065C60.7757 18.7065 60.4656 18.6296 60.1957 18.4757C59.9282 18.3194 59.7175 18.0886 59.5636 17.7832C59.4121 17.4778 59.3363 17.1002 59.3363 16.6504V13.181H60.3981V16.5226C60.3981 16.8943 60.5011 17.1902 60.7071 17.4104C60.913 17.6305 61.1806 17.7406 61.5096 17.7406C61.7085 17.7406 61.9062 17.6909 62.1027 17.5915C62.3015 17.492 62.4661 17.3417 62.5963 17.1405C62.7289 16.9392 62.794 16.6836 62.7916 16.3734ZM65.2836 18.6355V13.181H66.3454V18.6355H65.2836ZM65.8198 12.3393C65.6352 12.3393 65.4765 12.2778 65.344 12.1547C65.2138 12.0292 65.1487 11.8801 65.1487 11.7072C65.1487 11.532 65.2138 11.3829 65.344 11.2598C65.4765 11.1343 65.6352 11.0716 65.8198 11.0716C66.0045 11.0716 66.1619 11.1343 66.2921 11.2598C66.4247 11.3829 66.491 11.532 66.491 11.7072C66.491 11.8801 66.4247 12.0292 66.2921 12.1547C66.1619 12.2778 66.0045 12.3393 65.8198 12.3393ZM68.8356 11.3628V18.6355H67.7738V11.3628H68.8356ZM72.8102 13.181V14.0332H69.8308V13.181H72.8102ZM70.6298 11.8741H71.6916V17.0339C71.6916 17.2399 71.7224 17.395 71.784 17.4991C71.8455 17.6009 71.9248 17.6708 72.0219 17.7087C72.1213 17.7442 72.229 17.7619 72.345 17.7619C72.4303 17.7619 72.5048 17.756 72.5688 17.7442C72.6327 17.7323 72.6824 17.7229 72.7179 17.7158L72.9097 18.5929C72.8481 18.6166 72.7605 18.6402 72.6469 18.6639C72.5332 18.6899 72.3912 18.7042 72.2207 18.7065C71.9414 18.7113 71.681 18.6615 71.4395 18.5574C71.198 18.4532 71.0027 18.2922 70.8536 18.0744C70.7044 17.8566 70.6298 17.5832 70.6298 17.2541V11.8741ZM78.9288 18.7456C78.4175 18.7456 77.9712 18.6284 77.5901 18.394C77.2089 18.1596 76.913 17.8318 76.7023 17.4104C76.4916 16.989 76.3862 16.4965 76.3862 15.9331C76.3862 15.3673 76.4916 14.8725 76.7023 14.4487C76.913 14.0249 77.2089 13.6959 77.5901 13.4615C77.9712 13.2271 78.4175 13.1099 78.9288 13.1099C79.4402 13.1099 79.8865 13.2271 80.2676 13.4615C80.6488 13.6959 80.9447 14.0249 81.1554 14.4487C81.3661 14.8725 81.4715 15.3673 81.4715 15.9331C81.4715 16.4965 81.3661 16.989 81.1554 17.4104C80.9447 17.8318 80.6488 18.1596 80.2676 18.394C79.8865 18.6284 79.4402 18.7456 78.9288 18.7456ZM78.9324 17.8542C79.2638 17.8542 79.5385 17.7667 79.7563 17.5915C79.9741 17.4163 80.135 17.1831 80.2392 16.8919C80.3457 16.6007 80.399 16.2799 80.399 15.9295C80.399 15.5815 80.3457 15.2619 80.2392 14.9707C80.135 14.6772 79.9741 14.4416 79.7563 14.264C79.5385 14.0865 79.2638 13.9977 78.9324 13.9977C78.5986 13.9977 78.3216 14.0865 78.1014 14.264C77.8836 14.4416 77.7215 14.6772 77.6149 14.9707C77.5108 15.2619 77.4587 15.5815 77.4587 15.9295C77.4587 16.2799 77.5108 16.6007 77.6149 16.8919C77.7215 17.1831 77.8836 17.4163 78.1014 17.5915C78.3216 17.7667 78.5986 17.8542 78.9324 17.8542ZM83.7184 15.3969V18.6355H82.6566V13.181H83.6758V14.0687H83.7433C83.8688 13.7799 84.0653 13.5479 84.3328 13.3727C84.6027 13.1975 84.9424 13.1099 85.352 13.1099C85.7236 13.1099 86.0492 13.1881 86.3285 13.3443C86.6079 13.4982 86.8245 13.7278 86.9784 14.0332C87.1323 14.3386 87.2092 14.7162 87.2092 15.166V18.6355H86.1474V15.2939C86.1474 14.8985 86.0444 14.5896 85.8385 14.367C85.6325 14.1421 85.3496 14.0297 84.9897 14.0297C84.7435 14.0297 84.5245 14.0829 84.3328 14.1895C84.1434 14.296 83.9931 14.4523 83.8818 14.6582C83.7729 14.8618 83.7184 15.108 83.7184 15.3969Z" fill="#020617"/>
<path d="M95.561 27.3489L93.4988 33.1502H93.5154L95.5722 27.3824L95.561 27.3489ZM58.9558 27.3489L56.894 33.1502H56.9021L58.9637 27.3684L58.9558 27.3489ZM59.4712 28.7984L61.0174 33.1502H57.9164L57.1344 35.3453H61.8074L63.132 39.0676H66.0963L60.6943 25.3704L59.4712 28.7984Z" fill="#020617"/>
<path d="M56.8941 33.1501L58.9563 27.3488L58.9649 27.3682L59.8339 24.9292H57.558L51.9995 39.0685H54.7913L56.9027 33.1506L56.8941 33.1501ZM75.0784 31.7837C74.4038 31.3815 73.507 31.0047 72.3907 30.6581C71.7519 30.4476 71.2526 30.2532 70.891 30.0735C70.5288 29.8932 70.2767 29.6885 70.1368 29.4613C69.9969 29.2307 69.9258 28.9619 69.9258 28.6515C69.9258 28.1057 70.1341 27.6846 70.5507 27.3882C70.9679 27.0913 71.5517 26.9418 72.3005 26.9418C72.9147 26.9418 73.5535 27.0357 74.2228 27.2214C74.8915 27.4071 75.4838 27.6619 75.9997 27.9837L76.3864 25.6969C75.8598 25.3756 75.2178 25.1176 74.4642 24.9238C73.7276 24.7342 72.9703 24.6374 72.2097 24.6355C71.1927 24.6355 70.3066 24.8018 69.561 25.1376C68.8122 25.4723 68.2339 25.9495 67.8226 26.5703C67.4113 27.1912 67.2057 27.9227 67.2057 28.7654C67.2057 29.4861 67.3424 30.1069 67.6196 30.6333C67.8963 31.1602 68.346 31.6175 68.9714 31.9997C69.5963 32.3851 70.4193 32.7317 71.4363 33.0416C72.1712 33.2667 72.7417 33.4773 73.1476 33.6738C73.5535 33.8708 73.8361 34.0927 73.9952 34.3335C74.1539 34.5748 74.2334 34.8625 74.2334 35.1983C74.2334 35.7803 73.9979 36.2375 73.5263 36.5647C73.0546 36.8918 72.3993 37.0581 71.5655 37.0581C70.8413 37.0581 70.0845 36.9447 69.2924 36.7142C68.4998 36.4842 67.8114 36.1906 67.2217 35.8305L66.9643 38.1918C67.3066 38.4272 67.7377 38.6323 68.2531 38.8045C68.7684 38.9789 69.3223 39.115 69.9173 39.2148C70.5123 39.3142 71.1046 39.3644 71.6943 39.3644C73.3505 39.3644 74.6506 38.9816 75.5965 38.2199C76.5397 37.4571 77.014 36.4011 77.014 35.0488C77.014 34.3308 76.8607 33.7072 76.5536 33.1809C76.2465 32.654 75.7557 32.1881 75.0811 31.7864L75.0784 31.7837ZM89.7628 24.9297H77.93V27.2349H89.7628V24.9297ZM85.2538 28.2002H82.4374V39.0648H85.2538V28.2002ZM93.4999 33.1501L95.5621 27.3488L95.5728 27.3823L96.4477 24.9292H94.1606L88.6048 39.068H91.402L92.7265 35.3452H92.7319L93.5165 33.1501H93.4999ZM96.0797 28.8097L97.6212 33.1501H94.5302L93.7488 35.3452H98.4132L99.7378 39.0675H102.702L97.3028 25.381L96.0797 28.8097ZM111.809 33.3385C112.475 32.9615 113.043 32.4294 113.465 31.7864C113.896 31.1348 114.11 30.3758 114.11 29.5082C114.11 28.5656 113.901 27.7537 113.484 27.0719C113.068 26.39 112.473 25.8631 111.699 25.4917C110.926 25.1203 110.007 24.9346 108.938 24.9346H107.959V27.0746H108.568C110.432 27.0746 111.364 27.8811 111.364 29.4915C111.364 31.1019 110.402 31.9084 108.474 31.9084H107.956V34.0479H109.393L112.338 39.0702H115.486L111.806 33.3412L111.809 33.3385ZM107.008 24.9297H104.339V39.0648H107.008V24.9297Z" fill="#020617"/>
<defs>
<linearGradient id="paint0_linear_13297_2423" x1="17.0812" y1="34.9195" x2="37.4805" y2="14.5176" gradientUnits="userSpaceOnUse">
<stop stop-color="#E6007A"/>
<stop offset="0.21" stop-color="#703AC2"/>
<stop offset="0.46" stop-color="#0070EB"/>
<stop offset="0.77" stop-color="#0297FB"/>
<stop offset="1" stop-color="#0AE2FF"/>
</linearGradient>
<radialGradient id="paint1_radial_13297_2423" cx="0" cy="0" r="1" gradientUnits="userSpaceOnUse" gradientTransform="translate(32.56 20.76) scale(6.08421)">
<stop stop-color="white"/>
<stop offset="1" stop-color="white" stop-opacity="0"/>
</radialGradient>
<radialGradient id="paint2_radial_13297_2423" cx="0" cy="0" r="1" gradientUnits="userSpaceOnUse" gradientTransform="translate(23.568 32.0466) scale(3.54044 3.54044)">
<stop stop-color="white"/>
<stop offset="1" stop-color="white" stop-opacity="0"/>
</radialGradient>
<linearGradient id="paint3_linear_13297_2423" x1="18.2555" y1="31.4473" x2="21.6678" y2="31.4003" gradientUnits="userSpaceOnUse">
<stop stop-color="white" stop-opacity="0"/>
<stop offset="1" stop-color="white"/>
</linearGradient>
<radialGradient id="paint4_radial_13297_2423" cx="0" cy="0" r="1" gradientUnits="userSpaceOnUse" gradientTransform="translate(22.9138 21.668) rotate(-120) scale(6.08421)">
<stop stop-color="white"/>
<stop offset="1" stop-color="white" stop-opacity="0"/>
</radialGradient>
<radialGradient id="paint5_radial_13297_2423" cx="0" cy="0" r="1" gradientUnits="userSpaceOnUse" gradientTransform="translate(37.1854 23.8126) rotate(-120) scale(3.54044)">
<stop stop-color="white"/>
<stop offset="1" stop-color="white" stop-opacity="0"/>
</radialGradient>
<linearGradient id="paint6_linear_13297_2423" x1="39.3211" y1="28.7107" x2="37.5745" y2="25.7795" gradientUnits="userSpaceOnUse">
<stop stop-color="white" stop-opacity="0"/>
<stop offset="1" stop-color="white"/>
</linearGradient>
<radialGradient id="paint7_radial_13297_2423" cx="0" cy="0" r="1" gradientUnits="userSpaceOnUse" gradientTransform="translate(28.2347 29.2864) rotate(120) scale(6.08421)">
<stop stop-color="white"/>
<stop offset="1" stop-color="white" stop-opacity="0"/>
</radialGradient>
<radialGradient id="paint8_radial_13297_2423" cx="0" cy="0" r="1" gradientUnits="userSpaceOnUse" gradientTransform="translate(23.2437 16.1391) rotate(120) scale(3.54044)">
<stop stop-color="white"/>
<stop offset="1" stop-color="white" stop-opacity="0"/>
</radialGradient>
<linearGradient id="paint9_linear_13297_2423" x1="26.4173" y1="11.8367" x2="24.7539" y2="14.8164" gradientUnits="userSpaceOnUse">
<stop stop-color="white" stop-opacity="0"/>
<stop offset="1" stop-color="white"/>
</linearGradient>
<linearGradient id="paint10_linear_13297_2423" x1="27.1604" y1="10.3222" x2="21.9466" y2="11.839" gradientUnits="userSpaceOnUse">
<stop stop-color="#231F20"/>
<stop offset="1" stop-color="white"/>
</linearGradient>
<linearGradient id="paint11_linear_13297_2423" x1="17.3109" y1="30.2014" x2="21.6704" y2="34.7518" gradientUnits="userSpaceOnUse">
<stop stop-color="#231F20"/>
<stop offset="1" stop-color="white"/>
</linearGradient>
<linearGradient id="paint12_linear_13297_2423" x1="40.7064" y1="29.5167" x2="42.2232" y2="24.9055" gradientUnits="userSpaceOnUse">
<stop stop-color="#231F20"/>
<stop offset="1" stop-color="white"/>
</linearGradient>
<linearGradient id="paint13_linear_13297_2423" x1="29.5343" y1="12.9615" x2="36.5225" y2="14.561" gradientUnits="userSpaceOnUse">
<stop stop-color="#231F20"/>
<stop offset="1" stop-color="white"/>
</linearGradient>
<linearGradient id="paint14_linear_13297_2423" x1="36.7926" y1="30.8484" x2="31.91" y2="36.1017" gradientUnits="userSpaceOnUse">
<stop stop-color="#231F20"/>
<stop offset="1" stop-color="white"/>
</linearGradient>
<linearGradient id="paint15_linear_13297_2423" x1="17.6709" y1="28.193" x2="15.5643" y2="21.3403" gradientUnits="userSpaceOnUse">
<stop stop-color="#231F20"/>
<stop offset="1" stop-color="white"/>
</linearGradient>
<linearGradient id="paint16_linear_13297_2423" x1="31.0619" y1="15.5383" x2="28.8523" y2="17.7511" gradientUnits="userSpaceOnUse">
<stop stop-color="#231F20"/>
<stop offset="1" stop-color="white"/>
</linearGradient>
<linearGradient id="paint17_linear_13297_2423" x1="19.1406" y1="25.5744" x2="22.1603" y2="26.3855" gradientUnits="userSpaceOnUse">
<stop stop-color="#231F20"/>
<stop offset="1" stop-color="white"/>
</linearGradient>
<linearGradient id="paint18_linear_13297_2423" x1="33.7925" y1="30.8819" x2="32.9834" y2="27.8633" gradientUnits="userSpaceOnUse">
<stop stop-color="#231F20"/>
<stop offset="1" stop-color="white"/>
</linearGradient>
<linearGradient id="paint19_linear_13297_2423" x1="29.1956" y1="28.1967" x2="30.5236" y2="26.3653" gradientUnits="userSpaceOnUse">
<stop stop-color="#231F20"/>
<stop offset="1" stop-color="white"/>
</linearGradient>
<linearGradient id="paint20_linear_13297_2423" x1="24.6282" y1="27.403" x2="21.9749" y2="28.6681" gradientUnits="userSpaceOnUse">
<stop stop-color="#231F20"/>
<stop offset="1" stop-color="white"/>
</linearGradient>
<linearGradient id="paint21_linear_13297_2423" x1="23.6641" y1="22.986" x2="24.4854" y2="24.6922" gradientUnits="userSpaceOnUse">
<stop stop-color="#231F20"/>
<stop offset="1" stop-color="white"/>
</linearGradient>
<linearGradient id="paint22_linear_13297_2423" x1="27.4839" y1="17.7178" x2="26.917" y2="15.76" gradientUnits="userSpaceOnUse">
<stop stop-color="#231F20"/>
<stop offset="1" stop-color="white"/>
</linearGradient>
<linearGradient id="paint23_linear_13297_2423" x1="33.6122" y1="26.6853" x2="35.2549" y2="27.0634" gradientUnits="userSpaceOnUse">
<stop stop-color="#231F20"/>
<stop offset="1" stop-color="white"/>
</linearGradient>
<linearGradient id="paint24_linear_13297_2423" x1="31.0353" y1="21.1353" x2="28.9516" y2="20.7571" gradientUnits="userSpaceOnUse">
<stop stop-color="#231F20"/>
<stop offset="1" stop-color="white"/>
</linearGradient>
</defs>
</svg>
