<svg width="176" height="48" viewBox="0 0 176 48" fill="none" xmlns="http://www.w3.org/2000/svg">
<rect x="0.5" y="0.5" width="175" height="47" rx="7.5" fill="white"/>
<rect x="0.5" y="0.5" width="175" height="47" rx="7.5" stroke="#DCDEE5"/>
<rect x="12" y="8" width="32" height="32" rx="16" fill="#4DC601"/>
<path d="M30.1781 22.0597C30.1071 21.8295 30.0091 21.6236 29.8841 21.4418C29.7619 21.2571 29.6142 21.0994 29.4409 20.9688C29.2704 20.8381 29.0744 20.7401 28.8528 20.6747C28.6312 20.6065 28.3897 20.5724 28.1284 20.5724C27.6596 20.5724 27.242 20.6903 26.8755 20.9261C26.5091 21.1619 26.2207 21.5085 26.0105 21.9659C25.8031 22.4205 25.6994 22.9744 25.6994 23.6278C25.6994 24.2869 25.8031 24.8452 26.0105 25.3026C26.2179 25.7599 26.5062 26.108 26.8755 26.3466C27.2449 26.5824 27.6738 26.7003 28.1625 26.7003C28.6056 26.7003 28.9892 26.6151 29.313 26.4446C29.6397 26.2741 29.8912 26.0327 30.0673 25.7202C30.2434 25.4048 30.3315 25.0355 30.3315 24.6122L30.6895 24.6676H28.3201V23.4318H31.8613V24.4801C31.8613 25.2273 31.7022 25.8736 31.3841 26.419C31.0659 26.9645 30.6284 27.3849 30.0716 27.6804C29.5147 27.973 28.8755 28.1193 28.1539 28.1193C27.35 28.1193 26.644 27.9389 26.036 27.5781C25.4309 27.2145 24.9579 26.6989 24.617 26.0312C24.2789 25.3608 24.1099 24.5653 24.1099 23.6449C24.1099 22.9403 24.2093 22.3111 24.4082 21.7571C24.6099 21.2031 24.8912 20.733 25.252 20.3466C25.6127 19.9574 26.036 19.6619 26.5218 19.4602C27.0076 19.2557 27.536 19.1534 28.1071 19.1534C28.59 19.1534 29.0403 19.2244 29.4579 19.3665C29.8755 19.5057 30.2463 19.7045 30.5701 19.9631C30.8968 20.2216 31.1653 20.5284 31.3755 20.8835C31.5858 21.2386 31.7235 21.6307 31.7889 22.0597H30.1781Z" fill="white"/>
<path d="M58.1828 13.0249C58.1141 12.8094 58.0218 12.6165 57.9058 12.446C57.7922 12.2732 57.656 12.1264 57.4974 12.0057C57.3388 11.8826 57.1577 11.7891 56.9541 11.7251C56.7529 11.6612 56.5315 11.6293 56.29 11.6293C55.8805 11.6293 55.5112 11.7346 55.1821 11.9453C54.853 12.156 54.5926 12.465 54.4008 12.8722C54.2114 13.277 54.1167 13.773 54.1167 14.3601C54.1167 14.9496 54.2126 15.4479 54.4044 15.8551C54.5961 16.2623 54.8589 16.5713 55.1927 16.782C55.5265 16.9927 55.9065 17.098 56.3327 17.098C56.728 17.098 57.0725 17.0175 57.366 16.8565C57.662 16.6955 57.8904 16.4683 58.0514 16.1747C58.2148 15.8788 58.2964 15.5308 58.2964 15.1307L58.5805 15.1839H56.4996V14.2784H59.3582V15.1058C59.3582 15.7166 59.228 16.2469 58.9676 16.6967C58.7095 17.1442 58.3521 17.4898 57.8952 17.7337C57.4406 17.9775 56.9198 18.0994 56.3327 18.0994C55.6745 18.0994 55.0969 17.9479 54.5997 17.6449C54.1049 17.3419 53.719 16.9122 53.442 16.3558C53.165 15.7971 53.0265 15.1342 53.0265 14.3672C53.0265 13.7872 53.107 13.2663 53.268 12.8047C53.429 12.343 53.6551 11.9512 53.9463 11.6293C54.2398 11.3049 54.5843 11.0575 54.9797 10.8871C55.3774 10.7143 55.8118 10.6278 56.2829 10.6278C56.6759 10.6278 57.0417 10.6858 57.3802 10.8018C57.7211 10.9179 58.0242 11.0824 58.2893 11.2955C58.5568 11.5085 58.7782 11.7618 58.9534 12.0554C59.1286 12.3466 59.247 12.6697 59.3085 13.0249H58.1828ZM60.7512 18V10.7273H65.2611V11.6719H61.8485V13.8878H64.9379V14.8288H61.8485V18H60.7512ZM67.7078 10.7273V18H66.6105V10.7273H67.7078ZM75.1759 10.7273V18H74.1673L70.4706 12.6662H70.4031V18H69.3058V10.7273H70.3215L74.0218 16.0682H74.0892V10.7273H75.1759ZM79.0644 11.6719V10.7273H84.6929V11.6719H82.4237V18H81.33V11.6719H79.0644ZM87.4113 18.1101C86.8739 18.1101 86.4111 17.9953 86.0228 17.7656C85.6369 17.5336 85.3386 17.2081 85.1279 16.7891C84.9196 16.3677 84.8154 15.8741 84.8154 15.3082C84.8154 14.7495 84.9196 14.2571 85.1279 13.831C85.3386 13.4048 85.6322 13.0722 86.0086 12.8331C86.3874 12.594 86.8301 12.4744 87.3367 12.4744C87.6445 12.4744 87.9428 12.5253 88.2316 12.6271C88.5204 12.7289 88.7797 12.8887 89.0093 13.1065C89.239 13.3243 89.4201 13.6072 89.5526 13.9553C89.6852 14.3009 89.7515 14.7211 89.7515 15.2159V15.5923H85.4156V14.7969H88.711C88.711 14.5175 88.6542 14.2701 88.5406 14.0547C88.4269 13.8369 88.2671 13.6652 88.0612 13.5398C87.8576 13.4143 87.6185 13.3516 87.3438 13.3516C87.0455 13.3516 86.7851 13.425 86.5626 13.5717C86.3424 13.7161 86.172 13.9055 86.0512 14.1399C85.9329 14.3719 85.8737 14.6241 85.8737 14.8963V15.5178C85.8737 15.8823 85.9376 16.1925 86.0654 16.4482C86.1956 16.7038 86.3767 16.8991 86.6088 17.0341C86.8408 17.1667 87.1118 17.233 87.422 17.233C87.6232 17.233 87.8067 17.2045 87.9724 17.1477C88.1381 17.0885 88.2813 17.0009 88.4021 16.8849C88.5228 16.7689 88.6151 16.6257 88.6791 16.4553L89.684 16.6364C89.6035 16.9323 89.4591 17.1915 89.2508 17.4141C89.0448 17.6342 88.7856 17.8059 88.4731 17.929C88.163 18.0497 87.809 18.1101 87.4113 18.1101ZM93.2272 18.1101C92.6992 18.1101 92.2447 17.9905 91.8635 17.7514C91.4848 17.5099 91.1936 17.1773 90.99 16.7536C90.7864 16.3298 90.6846 15.8445 90.6846 15.2976C90.6846 14.7436 90.7887 14.2547 90.9971 13.831C91.2054 13.4048 91.499 13.0722 91.8778 12.8331C92.2565 12.594 92.7028 12.4744 93.2165 12.4744C93.6308 12.4744 94.0001 12.5514 94.3245 12.7053C94.6488 12.8568 94.9104 13.0698 95.1093 13.3445C95.3105 13.6191 95.4301 13.9399 95.468 14.3068H94.4346C94.3778 14.0511 94.2475 13.831 94.0439 13.6463C93.8427 13.4616 93.5728 13.3693 93.2343 13.3693C92.9384 13.3693 92.6791 13.4474 92.4566 13.6037C92.2364 13.7576 92.0648 13.9777 91.9417 14.2642C91.8186 14.5483 91.757 14.8845 91.757 15.2727C91.757 15.6705 91.8174 16.0137 91.9381 16.3026C92.0589 16.5914 92.2293 16.8151 92.4495 16.9737C92.672 17.1323 92.9336 17.2116 93.2343 17.2116C93.4355 17.2116 93.6178 17.175 93.7812 17.1016C93.9469 17.0258 94.0854 16.9181 94.1966 16.7784C94.3103 16.6387 94.3896 16.4706 94.4346 16.2741H95.468C95.4301 16.6269 95.3153 16.9418 95.1235 17.2188C94.9317 17.4957 94.6749 17.7135 94.3529 17.8722C94.0333 18.0308 93.6581 18.1101 93.2272 18.1101ZM97.6652 14.7614V18H96.6034V10.7273H97.651V13.4332H97.7185C97.8463 13.1397 98.0416 12.9065 98.3044 12.7337C98.5672 12.5608 98.9105 12.4744 99.3343 12.4744C99.7083 12.4744 100.035 12.5514 100.314 12.7053C100.596 12.8591 100.814 13.0888 100.968 13.3942C101.124 13.6972 101.202 14.076 101.202 14.5305V18H100.14V14.6584C100.14 14.2583 100.037 13.9482 99.8314 13.728C99.6254 13.5054 99.339 13.3942 98.972 13.3942C98.7211 13.3942 98.4962 13.4474 98.2973 13.554C98.1008 13.6605 97.9458 13.8168 97.8321 14.0227C97.7209 14.2263 97.6652 14.4725 97.6652 14.7614ZM106.671 12.6378C106.633 12.3016 106.477 12.0412 106.202 11.8565C105.928 11.6695 105.582 11.576 105.165 11.576C104.867 11.576 104.609 11.6233 104.391 11.718C104.173 11.8104 104.004 11.9382 103.883 12.1016C103.765 12.2625 103.706 12.446 103.706 12.652C103.706 12.8248 103.746 12.974 103.826 13.0994C103.909 13.2249 104.017 13.3303 104.15 13.4155C104.285 13.4983 104.429 13.5682 104.583 13.625C104.737 13.6795 104.885 13.7244 105.027 13.7599L105.737 13.9446C105.969 14.0014 106.207 14.0784 106.451 14.1754C106.695 14.2725 106.921 14.4003 107.129 14.5589C107.337 14.7176 107.505 14.9141 107.633 15.1484C107.763 15.3828 107.829 15.6634 107.829 15.9901C107.829 16.402 107.722 16.7678 107.509 17.0874C107.298 17.407 106.992 17.6591 106.589 17.8438C106.189 18.0284 105.705 18.1207 105.137 18.1207C104.592 18.1207 104.121 18.0343 103.723 17.8615C103.326 17.6887 103.014 17.4437 102.79 17.1264C102.565 16.8068 102.44 16.428 102.417 15.9901H103.517C103.539 16.2528 103.624 16.4718 103.773 16.647C103.925 16.8198 104.118 16.9489 104.352 17.0341C104.589 17.117 104.848 17.1584 105.13 17.1584C105.44 17.1584 105.716 17.1098 105.957 17.0128C106.201 16.9134 106.393 16.776 106.532 16.6009C106.672 16.4233 106.742 16.2161 106.742 15.9794C106.742 15.764 106.68 15.5876 106.557 15.4503C106.437 15.313 106.272 15.1993 106.064 15.1094C105.858 15.0194 105.624 14.9401 105.364 14.8714L104.505 14.6371C103.922 14.4785 103.461 14.2453 103.12 13.9375C102.781 13.6297 102.612 13.2225 102.612 12.7159C102.612 12.2969 102.726 11.9311 102.953 11.6186C103.18 11.3061 103.488 11.0634 103.876 10.8906C104.264 10.7154 104.702 10.6278 105.19 10.6278C105.682 10.6278 106.117 10.7143 106.493 10.8871C106.872 11.0599 107.17 11.2978 107.388 11.6009C107.606 11.9015 107.72 12.2472 107.729 12.6378H106.671ZM109.055 20.0455V12.5455H110.092V13.4297H110.18C110.242 13.3161 110.331 13.1847 110.447 13.0355C110.563 12.8864 110.724 12.7562 110.93 12.6449C111.136 12.5312 111.408 12.4744 111.746 12.4744C112.187 12.4744 112.58 12.5857 112.925 12.8082C113.271 13.0308 113.542 13.3516 113.739 13.7706C113.937 14.1896 114.037 14.6939 114.037 15.2834C114.037 15.8729 113.939 16.3783 113.742 16.7997C113.546 17.2187 113.276 17.5419 112.932 17.7692C112.589 17.9941 112.197 18.1065 111.757 18.1065C111.426 18.1065 111.155 18.0509 110.944 17.9396C110.735 17.8284 110.572 17.6982 110.454 17.549C110.335 17.3999 110.244 17.2673 110.18 17.1513H110.116V20.0455H109.055ZM110.095 15.2727C110.095 15.6562 110.151 15.9924 110.262 16.2812C110.373 16.5701 110.534 16.7962 110.745 16.9595C110.956 17.1205 111.214 17.201 111.519 17.201C111.836 17.201 112.101 17.117 112.315 16.9489C112.528 16.7784 112.689 16.5476 112.797 16.2564C112.909 15.9652 112.964 15.6373 112.964 15.2727C112.964 14.9129 112.91 14.5897 112.801 14.3033C112.695 14.0168 112.534 13.7907 112.318 13.625C112.105 13.4593 111.839 13.3764 111.519 13.3764C111.211 13.3764 110.951 13.4557 110.738 13.6143C110.527 13.773 110.367 13.9943 110.258 14.2784C110.15 14.5625 110.095 14.8939 110.095 15.2727ZM115.226 18V12.5455H116.253V13.4119H116.31C116.409 13.1184 116.584 12.8875 116.835 12.7195C117.088 12.549 117.375 12.4638 117.695 12.4638C117.761 12.4638 117.839 12.4661 117.929 12.4709C118.021 12.4756 118.093 12.4815 118.146 12.4886V13.5043C118.103 13.4924 118.027 13.4794 117.918 13.4652C117.809 13.4486 117.7 13.4403 117.592 13.4403C117.341 13.4403 117.117 13.4936 116.92 13.6001C116.726 13.7043 116.572 13.8499 116.459 14.0369C116.345 14.2216 116.288 14.4323 116.288 14.669V18H115.226ZM119.064 18V12.5455H120.126V18H119.064ZM119.601 11.7038C119.416 11.7038 119.257 11.6423 119.125 11.5192C118.995 11.3937 118.929 11.2446 118.929 11.0717C118.929 10.8965 118.995 10.7474 119.125 10.6243C119.257 10.4988 119.416 10.4361 119.601 10.4361C119.785 10.4361 119.943 10.4988 120.073 10.6243C120.205 10.7474 120.272 10.8965 120.272 11.0717C120.272 11.2446 120.205 11.3937 120.073 11.5192C119.943 11.6423 119.785 11.7038 119.601 11.7038ZM122.616 14.7614V18H121.555V12.5455H122.574V13.4332H122.641C122.767 13.1444 122.963 12.9124 123.231 12.7372C123.501 12.562 123.84 12.4744 124.25 12.4744C124.622 12.4744 124.947 12.5526 125.226 12.7088C125.506 12.8627 125.722 13.0923 125.876 13.3977C126.03 13.7031 126.107 14.0807 126.107 14.5305V18H125.045V14.6584C125.045 14.263 124.942 13.9541 124.736 13.7315C124.53 13.5066 124.248 13.3942 123.888 13.3942C123.641 13.3942 123.422 13.4474 123.231 13.554C123.041 13.6605 122.891 13.8168 122.78 14.0227C122.671 14.2263 122.616 14.4725 122.616 14.7614ZM130.077 12.5455V13.3977H127.098V12.5455H130.077ZM127.897 11.2386H128.959V16.3984C128.959 16.6044 128.989 16.7595 129.051 16.8636C129.113 16.9654 129.192 17.0353 129.289 17.0732C129.388 17.1087 129.496 17.1264 129.612 17.1264C129.697 17.1264 129.772 17.1205 129.836 17.1087C129.9 17.0968 129.949 17.0874 129.985 17.0803L130.177 17.9574C130.115 17.9811 130.028 18.0047 129.914 18.0284C129.8 18.0545 129.658 18.0687 129.488 18.071C129.208 18.0758 128.948 18.026 128.707 17.9219C128.465 17.8177 128.27 17.6567 128.121 17.4389C127.972 17.2211 127.897 16.9477 127.897 16.6186V11.2386Z" fill="#181E2F"/>
<path d="M54.5784 35H52.6096L56.1942 24.8182H58.4711L62.0606 35H60.0919L57.3724 26.9062H57.2929L54.5784 35ZM54.643 31.0078H60.0123V32.4893H54.643V31.0078ZM64.5874 35L61.7139 24.8182H63.6975L65.532 32.3004H65.6265L67.5853 24.8182H69.39L71.3538 32.3054H71.4433L73.2778 24.8182H75.2615L72.3879 35H70.5683L68.5299 27.8558H68.4504L66.407 35H64.5874ZM76.8909 35H74.9221L78.5067 24.8182H80.7836L84.3731 35H82.4044L79.6849 26.9062H79.6054L76.8909 35ZM76.9555 31.0078H82.3248V32.4893H76.9555V31.0078ZM85.7142 35V24.8182H89.5324C90.3146 24.8182 90.9709 24.9541 91.5012 25.2259C92.0348 25.4976 92.4375 25.8788 92.7093 26.3693C92.9843 26.8565 93.1219 27.425 93.1219 28.0746C93.1219 28.7275 92.9827 29.2943 92.7043 29.7749C92.4292 30.2521 92.0232 30.6217 91.4862 30.8835C90.9493 31.142 90.2897 31.2713 89.5075 31.2713H86.7881V29.7401H89.259C89.7164 29.7401 90.0909 29.6771 90.3825 29.5511C90.6742 29.4219 90.8896 29.2346 91.0289 28.9893C91.1714 28.7408 91.2426 28.4358 91.2426 28.0746C91.2426 27.7133 91.1714 27.4051 91.0289 27.1499C90.8863 26.8913 90.6692 26.6958 90.3776 26.5632C90.0859 26.4273 89.7097 26.3594 89.249 26.3594H87.5587V35H85.7142ZM90.9742 30.3864L93.4948 35H91.4365L88.9607 30.3864H90.9742ZM98.27 35H94.8197V24.8182H98.3396C99.3505 24.8182 100.219 25.022 100.945 25.4297C101.674 25.834 102.234 26.4157 102.625 27.1747C103.016 27.9337 103.212 28.8419 103.212 29.8991C103.212 30.9598 103.015 31.8712 102.62 32.6335C102.229 33.3958 101.664 33.9808 100.925 34.3885C100.189 34.7962 99.3041 35 98.27 35ZM96.6642 33.4041H98.1805C98.8898 33.4041 99.4814 33.2749 99.9553 33.0163C100.429 32.7545 100.786 32.3651 101.024 31.848C101.263 31.3277 101.382 30.678 101.382 29.8991C101.382 29.1203 101.263 28.474 101.024 27.9602C100.786 27.4432 100.433 27.0571 99.9653 26.8018C99.5013 26.5433 98.9246 26.4141 98.2352 26.4141H96.6642V33.4041ZM110.58 35L107.706 24.8182H109.69L111.524 32.3004H111.619L113.578 24.8182H115.382L117.346 32.3054H117.435L119.27 24.8182H121.254L118.38 35H116.56L114.522 27.8558H114.443L112.399 35H110.58ZM124.377 24.8182V35H122.533V24.8182H124.377ZM134.742 24.8182V35H133.101L128.303 28.0646H128.219V35H126.374V24.8182H128.025L132.818 31.7585H132.907V24.8182H134.742ZM145.119 24.8182V35H143.478L138.68 28.0646H138.596V35H136.751V24.8182H138.402L143.195 31.7585H143.284V24.8182H145.119ZM147.128 35V24.8182H153.75V26.3643H148.973V29.1286H153.407V30.6747H148.973V33.4538H153.79V35H147.128ZM155.632 35V24.8182H159.45C160.233 24.8182 160.889 24.9541 161.419 25.2259C161.953 25.4976 162.355 25.8788 162.627 26.3693C162.902 26.8565 163.04 27.425 163.04 28.0746C163.04 28.7275 162.901 29.2943 162.622 29.7749C162.347 30.2521 161.941 30.6217 161.404 30.8835C160.867 31.142 160.208 31.2713 159.426 31.2713H156.706V29.7401H159.177C159.634 29.7401 160.009 29.6771 160.301 29.5511C160.592 29.4219 160.808 29.2346 160.947 28.9893C161.089 28.7408 161.161 28.4358 161.161 28.0746C161.161 27.7133 161.089 27.4051 160.947 27.1499C160.804 26.8913 160.587 26.6958 160.296 26.5632C160.004 26.4273 159.628 26.3594 159.167 26.3594H157.477V35H155.632ZM160.892 30.3864L163.413 35H161.354L158.879 30.3864H160.892Z" fill="#181E2F"/>
</svg>
