<svg width="48" height="48" viewBox="0 0 48 48" fill="none" xmlns="http://www.w3.org/2000/svg">
<path d="M23.9095 3.00047C23.3806 3.00047 22.9549 3.4262 22.9549 3.95504V4.90961C22.9549 5.43844 23.3806 5.86418 23.9095 5.86418H33.4589L33.4741 12.054C33.4741 12.8418 34.1145 13.4799 34.9023 13.4821L41.0921 13.4984V40.7055C41.0921 41.5235 40.4782 42.1374 39.6602 42.1374H17.7051C16.8871 42.1374 16.2733 41.5235 16.2733 40.7055V39.2737C16.2733 38.7448 15.8475 38.3191 15.3187 38.3191H14.3641C13.8353 38.3191 13.4096 38.7448 13.4096 39.2737V40.7055C13.4096 43.0606 15.3501 45.0011 17.7051 45.0011H39.6602C42.0152 45.0011 43.9558 43.0606 43.9558 40.7055V11.6042C43.9557 11.2245 43.8048 10.8603 43.5363 10.5918L36.3639 3.41949C36.0955 3.15087 35.7313 3.0001 35.3516 3L23.9095 3.00047ZM13.4092 17.0464C13.4092 17.5753 13.8349 18.001 14.3638 18.001H15.3183C15.8472 18.001 16.2729 17.5753 16.2729 17.0464V13.5007C16.2729 12.9719 15.8472 12.5462 15.3183 12.5462H14.3638C13.8349 12.5462 13.4092 12.9719 13.4092 13.5007V17.0464Z" fill="#181E2F"/>
<path d="M6.74087 20C5.22241 20 4 21.2975 4 22.9091V33.0909C4 34.7025 5.22241 36 6.74087 36H35.2591C36.7776 36 38 34.7025 38 33.0909V22.9091C38 21.2975 36.7776 20 35.2591 20H6.74087Z" fill="#47B801"/>
<path d="M13.1679 27.5874L15.7872 30.7505C16.0986 30.7556 16.331 30.8321 16.4841 30.9802C16.6424 31.1232 16.7215 31.3095 16.7215 31.5393C16.7215 31.7691 16.6398 31.958 16.4765 32.106C16.3182 32.249 16.0501 32.3205 15.6723 32.3205H13.9032C13.5304 32.3205 13.2624 32.249 13.099 32.106C12.9407 31.958 12.8616 31.7665 12.8616 31.5316C12.8616 31.3121 12.9356 31.1308 13.0837 30.9879C13.2318 30.8398 13.4539 30.7607 13.75 30.7505L12.1723 28.8052L10.5793 30.7505C10.8703 30.7607 11.0899 30.8398 11.238 30.9879C11.386 31.1359 11.4601 31.3197 11.4601 31.5393C11.4601 31.7691 11.3784 31.958 11.215 32.106C11.0567 32.249 10.7886 32.3205 10.4108 32.3205H8.64933C8.27151 32.3205 8.0009 32.249 7.83752 32.106C7.67924 31.958 7.6001 31.7665 7.6001 31.5316C7.6001 31.307 7.67924 31.1206 7.83752 30.9726C7.99579 30.8245 8.22811 30.7505 8.53445 30.7505L11.1384 27.5721L8.65699 24.6082C8.35064 24.598 8.12089 24.5214 7.96771 24.3785C7.81965 24.2304 7.74561 24.044 7.74561 23.8194C7.74561 23.5845 7.82475 23.3956 7.98303 23.2526C8.14641 23.1046 8.41702 23.0305 8.79485 23.0305L10.2423 23.0382C10.6202 23.0382 10.8882 23.1097 11.0465 23.2526C11.2099 23.3956 11.2916 23.5845 11.2916 23.8194C11.2916 23.993 11.2405 24.1513 11.1384 24.2942C11.072 24.381 10.9239 24.4857 10.6942 24.6082L12.157 26.362L13.5892 24.6082C13.3594 24.4857 13.2113 24.381 13.145 24.2942C13.0428 24.1513 12.9918 23.993 12.9918 23.8194C12.9918 23.5896 13.0709 23.4007 13.2292 23.2526C13.3926 23.1046 13.6632 23.0305 14.041 23.0305L15.4808 23.0382C15.8587 23.0382 16.1267 23.1097 16.285 23.2526C16.4484 23.3956 16.5301 23.5845 16.5301 23.8194C16.5301 24.044 16.4509 24.2304 16.2927 24.3785C16.1395 24.5265 15.9148 24.6031 15.6187 24.6082L13.1679 27.5874Z" fill="white"/>
<path d="M20.9032 24.6082V30.7505H24.2883V29.2647C24.2883 28.8868 24.3598 28.6188 24.5027 28.4605C24.6508 28.2971 24.8423 28.2154 25.0771 28.2154C25.3069 28.2154 25.4932 28.2971 25.6362 28.4605C25.7843 28.6188 25.8583 28.8868 25.8583 29.2647V32.3205H18.4218C18.0439 32.3205 17.7733 32.249 17.6099 32.106C17.4517 31.958 17.3725 31.7665 17.3725 31.5316C17.3725 31.3019 17.4517 31.1155 17.6099 30.9726C17.7733 30.8245 18.0439 30.7505 18.4218 30.7505H19.3331V24.6082H18.4218C18.0439 24.6082 17.7733 24.5367 17.6099 24.3938C17.4517 24.2457 17.3725 24.0542 17.3725 23.8194C17.3725 23.5845 17.4517 23.3956 17.6099 23.2526C17.7733 23.1046 18.0439 23.0305 18.4218 23.0305L21.8222 23.0382C22.2 23.0382 22.4681 23.1097 22.6264 23.2526C22.7897 23.3956 22.8714 23.5845 22.8714 23.8194C22.8714 24.0542 22.7897 24.2457 22.6264 24.3938C22.4681 24.5367 22.2 24.6082 21.8222 24.6082H20.9032Z" fill="white"/>
<path d="M28.6843 31.9222C28.5465 32.0856 28.4342 32.1903 28.3474 32.2362C28.2657 32.2822 28.1636 32.3052 28.041 32.3052C27.801 32.3052 27.607 32.226 27.459 32.0677C27.316 31.9044 27.2445 31.6363 27.2445 31.2636V30.2067C27.2445 29.8289 27.316 29.5608 27.459 29.4025C27.607 29.2391 27.801 29.1575 28.041 29.1575C28.2248 29.1575 28.378 29.206 28.5005 29.303C28.6282 29.4 28.7252 29.5634 28.7916 29.7931C28.8579 30.0178 28.9269 30.1709 28.9983 30.2526C29.1464 30.4109 29.4094 30.5717 29.7872 30.7351C30.165 30.8985 30.5786 30.9802 31.0279 30.9802C31.7274 30.9802 32.3018 30.8168 32.7511 30.4901C33.037 30.2909 33.18 30.0459 33.18 29.7548C33.18 29.5608 33.111 29.3796 32.9732 29.2111C32.8353 29.0375 32.6107 28.8945 32.2992 28.7822C32.095 28.7056 31.638 28.6009 30.9283 28.4682C30.0706 28.3099 29.4221 28.1184 28.983 27.8938C28.5439 27.6691 28.1967 27.3526 27.9415 26.9441C27.6862 26.5356 27.5585 26.094 27.5585 25.6192C27.5585 24.8686 27.8725 24.2125 28.5005 23.6509C29.1285 23.0842 29.9455 22.8008 30.9513 22.8008C31.3547 22.8008 31.7274 22.8467 32.0695 22.9386C32.4167 23.0254 32.7307 23.1607 33.0115 23.3445C33.2157 23.1454 33.4199 23.0459 33.6242 23.0459C33.8539 23.0459 34.0403 23.1275 34.1832 23.2909C34.3313 23.4492 34.4053 23.7147 34.4053 24.0874V25.2669C34.4053 25.6447 34.3313 25.9153 34.1832 26.0787C34.0403 26.237 33.8539 26.3161 33.6242 26.3161C33.4301 26.3161 33.2617 26.2574 33.1187 26.1399C33.0064 26.0532 32.9221 25.8796 32.866 25.6192C32.8098 25.3588 32.7383 25.1724 32.6515 25.0601C32.5035 24.8661 32.2814 24.7027 31.9852 24.5699C31.6891 24.4372 31.347 24.3708 30.959 24.3708C30.3922 24.3708 29.9429 24.5036 29.611 24.7691C29.2843 25.0294 29.1209 25.3026 29.1209 25.5885C29.1209 25.7825 29.1873 25.9715 29.32 26.1553C29.4579 26.334 29.657 26.4744 29.9174 26.5765C30.091 26.648 30.5786 26.7629 31.3802 26.9211C32.1869 27.0794 32.8047 27.253 33.2336 27.4419C33.6676 27.6308 34.0275 27.927 34.3134 28.3303C34.5994 28.7337 34.7423 29.2136 34.7423 29.7701C34.7423 30.5462 34.4692 31.1666 33.9229 31.6312C33.1978 32.2439 32.2737 32.5502 31.1504 32.5502C30.7164 32.5502 30.2927 32.4966 29.8791 32.3894C29.4706 32.2873 29.0724 32.1316 28.6843 31.9222Z" fill="white"/>
<path d="M13.4092 7.29557C13.4092 4.94055 15.3498 3 17.7047 3H20.0912C20.62 3 21.0457 3.42574 21.0457 3.95457V4.90914C21.0457 5.43797 20.62 5.86371 20.0912 5.86371H17.7047C16.8868 5.86371 16.2729 6.4776 16.2729 7.29557V9.68199C16.2729 10.2108 15.8472 10.6366 15.3183 10.6366H14.3638C13.8349 10.6366 13.4092 10.2108 13.4092 9.68199V7.29557Z" fill="#47B801"/>
</svg>
